<svg id="svg" version="1.1" width="400" height="371.42857142857144" viewBox="0 0 400 371.42857142857144" xmlns="http://www.w3.org/2000/svg" xmlns:xlink="http://www.w3.org/1999/xlink" ><g id="svgg"><path id="path0" d="M132.714 44.736 C 130.891 45.704,126.394 48.740,126.394 49.003 C 126.394 49.150,125.707 50.101,124.868 51.116 C 124.029 52.132,122.849 53.885,122.245 55.013 C 121.119 57.115,119.535 59.530,117.387 62.415 C 116.718 63.313,115.586 65.002,114.870 66.167 C 113.025 69.171,111.364 71.696,110.098 73.420 C 109.497 74.238,108.565 75.743,108.025 76.766 C 107.071 78.573,105.632 80.607,103.424 83.271 C 102.832 83.987,101.643 85.743,100.784 87.175 C 99.194 89.821,98.259 91.239,96.395 93.825 C 95.491 95.080,93.362 98.413,91.173 101.998 C 90.814 102.586,89.834 104.008,88.996 105.158 C 88.158 106.308,86.997 108.086,86.417 109.108 C 85.837 110.130,84.892 111.516,84.317 112.188 C 83.742 112.859,83.271 113.560,83.271 113.745 C 83.271 113.930,82.597 114.861,81.772 115.814 C 80.947 116.767,79.869 118.342,79.376 119.315 C 78.883 120.288,78.076 121.567,77.582 122.159 C 77.088 122.750,76.387 123.820,76.023 124.535 C 75.659 125.251,74.883 126.386,74.297 127.058 C 73.712 127.730,72.815 129.104,72.305 130.112 C 71.794 131.119,70.910 132.493,70.339 133.165 C 69.768 133.837,69.112 134.826,68.880 135.363 C 68.649 135.900,67.978 136.904,67.389 137.594 C 66.800 138.283,65.626 140.032,64.779 141.480 C 63.931 142.928,62.978 144.329,62.660 144.593 C 62.342 144.857,62.082 145.279,62.082 145.532 C 62.082 145.785,61.440 146.726,60.656 147.624 C 59.872 148.522,58.758 150.093,58.179 151.115 C 57.601 152.138,56.755 153.392,56.300 153.903 C 55.845 154.414,55.118 155.539,54.685 156.402 C 54.253 157.266,53.427 158.520,52.850 159.190 C 52.274 159.861,51.270 161.351,50.620 162.503 C 49.970 163.655,49.174 164.816,48.852 165.083 C 48.530 165.350,47.792 166.509,47.212 167.658 C 46.632 168.807,45.894 169.966,45.572 170.233 C 45.250 170.500,44.458 171.661,43.812 172.813 C 43.166 173.965,42.294 175.289,41.874 175.757 C 41.453 176.224,40.684 177.350,40.164 178.258 C 38.821 180.606,35.722 185.070,34.297 186.711 C 33.631 187.478,33.086 188.340,33.086 188.626 C 33.086 188.912,32.355 190.124,31.462 191.320 C 30.568 192.516,29.542 194.080,29.180 194.796 C 28.819 195.511,27.961 196.724,27.273 197.492 C 26.585 198.259,26.022 199.073,26.022 199.299 C 26.022 199.526,25.252 200.736,24.311 201.988 C 23.370 203.240,22.193 205.069,21.694 206.053 C 21.196 207.037,20.559 207.929,20.279 208.037 C 20.000 208.144,19.399 209.098,18.945 210.157 C 18.491 211.216,17.602 212.834,16.971 213.754 C 14.685 217.083,15.044 219.796,18.456 224.970 C 22.985 231.836,34.395 232.340,38.933 225.874 C 39.593 224.933,40.301 224.164,40.505 224.164 C 40.710 224.164,41.234 223.453,41.670 222.584 C 42.106 221.715,43.091 220.161,43.860 219.132 C 44.628 218.103,45.595 216.597,46.009 215.786 C 46.422 214.976,47.127 213.981,47.574 213.577 C 48.021 213.172,48.812 211.974,49.331 210.914 C 49.850 209.854,50.924 208.201,51.717 207.241 C 52.511 206.281,53.160 205.263,53.160 204.979 C 53.160 204.695,53.723 203.835,54.412 203.068 C 55.100 202.301,56.005 200.999,56.422 200.175 C 56.839 199.351,57.865 197.848,58.702 196.836 C 59.539 195.823,60.223 194.783,60.223 194.525 C 60.223 194.266,60.787 193.426,61.476 192.659 C 62.165 191.892,63.168 190.392,63.706 189.326 C 64.243 188.260,65.162 186.838,65.749 186.166 C 66.335 185.494,67.159 184.264,67.581 183.432 C 68.002 182.601,68.612 181.700,68.936 181.432 C 69.260 181.163,70.045 179.969,70.679 178.778 C 71.314 177.588,72.375 175.979,73.038 175.203 C 73.701 174.427,74.366 173.404,74.515 172.931 C 74.665 172.457,75.245 171.537,75.805 170.886 C 76.365 170.235,77.382 168.699,78.066 167.472 C 78.750 166.245,79.866 164.614,80.547 163.847 C 81.228 163.079,81.784 162.231,81.784 161.962 C 81.784 161.692,82.337 160.815,83.013 160.011 C 83.688 159.208,84.720 157.714,85.305 156.691 C 85.890 155.669,86.926 154.175,87.608 153.372 C 88.290 152.568,88.848 151.706,88.848 151.455 C 88.848 151.205,89.416 150.319,90.111 149.487 C 90.807 148.655,91.971 146.908,92.700 145.605 C 93.429 144.302,94.305 143.004,94.647 142.720 C 94.989 142.436,95.564 141.515,95.925 140.673 C 96.286 139.832,97.077 138.575,97.683 137.880 C 98.289 137.185,99.149 135.899,99.594 135.020 C 100.040 134.142,100.951 132.804,101.620 132.046 C 102.289 131.289,103.287 129.916,103.838 128.996 C 104.389 128.076,105.157 126.905,105.544 126.394 C 106.419 125.240,108.687 121.777,110.409 118.969 C 113.089 114.598,114.713 112.135,115.656 111.010 C 116.191 110.373,116.990 109.182,117.431 108.364 C 118.166 107.003,119.913 104.359,122.575 100.580 C 123.142 99.775,124.059 98.285,124.614 97.270 C 125.168 96.255,126.017 94.990,126.500 94.459 C 126.984 93.929,127.920 92.629,128.580 91.571 C 129.240 90.514,130.035 89.437,130.347 89.178 C 130.658 88.920,131.313 87.920,131.801 86.956 C 134.584 81.464,140.473 83.314,144.336 90.893 C 144.649 91.507,145.274 92.343,145.725 92.751 C 146.176 93.159,146.789 93.965,147.087 94.542 C 147.386 95.119,148.414 96.622,149.373 97.881 C 151.797 101.067,152.529 102.065,154.463 104.833 C 155.392 106.162,156.988 108.420,158.008 109.851 C 160.441 113.263,162.939 116.838,164.502 119.145 C 168.539 125.102,170.207 127.449,172.394 130.244 C 173.057 131.091,174.646 133.271,175.926 135.088 C 177.206 136.905,179.036 139.497,179.992 140.850 C 180.949 142.202,182.007 143.785,182.344 144.367 C 182.891 145.314,185.675 149.243,188.310 152.788 C 188.842 153.504,189.808 154.886,190.457 155.859 C 191.105 156.832,193.006 159.509,194.681 161.807 C 197.841 166.143,199.254 168.161,201.119 171.004 C 202.793 173.555,204.707 176.277,205.653 177.452 C 206.122 178.034,207.091 179.400,207.807 180.488 C 208.522 181.576,210.195 184.003,211.524 185.882 C 212.853 187.760,214.275 189.837,214.684 190.497 C 220.485 199.858,231.468 201.485,237.266 193.843 C 240.424 189.680,240.429 182.618,237.275 179.057 C 236.883 178.615,236.002 177.333,235.317 176.208 C 234.632 175.084,233.707 173.745,233.262 173.234 C 232.818 172.723,231.676 170.857,230.725 169.088 C 227.694 163.448,227.890 163.008,238.571 151.438 C 240.260 149.609,241.922 147.701,242.266 147.198 C 242.610 146.694,243.113 146.148,243.382 145.983 C 243.652 145.819,244.520 144.815,245.310 143.753 C 246.684 141.906,248.200 140.125,257.172 129.811 C 261.145 125.244,264.050 123.048,266.118 123.048 C 266.926 123.048,270.897 127.135,272.376 129.487 C 272.913 130.342,273.661 131.260,274.039 131.528 C 274.417 131.796,274.998 132.549,275.331 133.201 C 275.664 133.853,276.541 135.063,277.280 135.890 C 278.702 137.481,280.463 139.819,282.400 142.687 C 283.045 143.642,283.978 144.842,284.474 145.353 C 284.969 145.864,285.688 146.784,286.070 147.398 C 286.453 148.011,287.443 149.304,288.271 150.270 C 290.947 153.392,292.057 154.793,293.504 156.877 C 294.286 158.002,295.379 159.424,295.934 160.037 C 296.489 160.651,297.211 161.686,297.540 162.338 C 297.868 162.990,298.444 163.743,298.818 164.011 C 299.193 164.279,300.111 165.418,300.857 166.543 C 301.604 167.667,303.220 169.842,304.450 171.375 C 305.679 172.909,307.263 175.021,307.971 176.068 C 308.678 177.116,309.507 178.069,309.813 178.187 C 310.120 178.304,310.652 178.953,310.997 179.628 C 311.342 180.303,312.229 181.532,312.968 182.359 C 314.370 183.928,316.089 186.205,318.097 189.155 C 318.747 190.110,319.795 191.478,320.425 192.193 C 321.056 192.909,321.925 194.077,322.357 194.789 C 322.789 195.501,323.367 196.254,323.642 196.462 C 323.916 196.670,324.774 197.706,325.546 198.764 C 328.383 202.646,331.145 206.160,331.762 206.673 C 332.111 206.963,332.706 207.807,333.086 208.550 C 333.465 209.293,334.061 210.138,334.410 210.428 C 334.759 210.718,335.467 211.627,335.982 212.448 C 336.497 213.269,337.613 214.777,338.461 215.799 C 339.310 216.822,340.316 218.160,340.697 218.773 C 341.079 219.387,341.697 220.108,342.073 220.376 C 342.448 220.644,343.027 221.397,343.360 222.049 C 343.923 223.153,346.076 225.808,348.040 227.817 C 354.865 234.802,364.216 233.762,369.772 225.400 C 371.216 223.227,371.144 216.410,369.656 214.377 C 369.181 213.728,368.328 212.368,367.761 211.354 C 367.193 210.341,366.286 209.077,365.745 208.546 C 365.205 208.016,364.452 207.071,364.073 206.448 C 363.693 205.824,362.829 204.662,362.152 203.865 C 359.708 200.990,356.176 196.259,355.957 195.568 C 355.834 195.180,355.321 194.592,354.817 194.262 C 354.313 193.932,353.456 192.955,352.912 192.091 C 352.368 191.227,351.700 190.353,351.427 190.149 C 351.154 189.944,350.387 189.004,349.722 188.059 C 348.051 185.683,345.794 182.772,344.191 180.923 C 343.449 180.068,342.529 178.849,342.146 178.215 C 341.763 177.580,340.897 176.409,340.221 175.613 C 338.420 173.489,336.614 171.090,335.073 168.773 C 334.326 167.649,333.154 166.101,332.470 165.334 C 331.786 164.566,331.227 163.805,331.227 163.641 C 331.227 163.478,330.516 162.565,329.647 161.612 C 327.326 159.067,325.586 156.956,324.535 155.411 C 323.403 153.746,320.810 150.432,318.680 147.929 C 317.811 146.908,317.100 145.911,317.100 145.714 C 317.100 145.517,316.549 144.727,315.875 143.960 C 315.201 143.193,314.335 142.063,313.950 141.450 C 313.564 140.836,312.443 139.364,311.457 138.178 C 310.472 136.991,309.665 135.880,309.665 135.709 C 309.665 135.537,308.871 134.547,307.900 133.509 C 305.122 130.538,303.492 128.532,302.876 127.323 C 302.563 126.709,301.936 125.872,301.484 125.464 C 301.032 125.055,299.928 123.634,299.030 122.305 C 297.197 119.588,295.368 117.170,293.691 115.242 C 293.068 114.526,292.184 113.414,291.726 112.771 C 289.507 109.659,288.028 107.761,285.003 104.141 C 283.195 101.978,281.393 99.576,280.999 98.803 C 280.605 98.030,280.116 97.398,279.913 97.398 C 279.711 97.398,278.982 96.520,278.295 95.446 C 271.620 85.022,262.914 84.823,253.948 94.890 C 251.901 97.189,249.673 99.638,248.998 100.332 C 248.323 101.026,247.467 102.093,247.097 102.702 C 246.726 103.312,245.889 104.358,245.237 105.028 C 244.585 105.698,243.216 107.195,242.193 108.355 C 241.171 109.515,239.665 111.177,238.848 112.048 C 237.125 113.884,234.145 117.390,231.227 121.017 C 230.102 122.414,228.293 124.571,227.206 125.812 C 219.516 134.591,218.815 135.374,217.286 136.901 C 213.347 140.834,210.088 140.622,207.205 136.245 C 206.532 135.223,205.464 133.717,204.833 132.900 C 203.603 131.307,201.778 128.682,200.105 126.099 C 199.536 125.221,198.443 123.718,197.677 122.760 C 196.910 121.801,196.283 120.872,196.283 120.695 C 196.283 120.375,192.838 115.600,190.672 112.916 C 190.053 112.148,189.179 110.879,188.732 110.095 C 188.284 109.312,187.449 108.100,186.875 107.402 C 185.446 105.665,182.409 101.258,180.581 98.268 C 180.226 97.687,179.191 96.208,178.283 94.981 C 177.374 93.755,175.960 91.747,175.140 90.520 C 174.320 89.294,173.180 87.724,172.605 87.032 C 172.031 86.341,171.310 85.315,171.004 84.752 C 170.697 84.190,169.888 83.083,169.206 82.293 C 167.386 80.183,163.569 74.678,163.569 74.162 C 163.569 73.918,163.055 73.149,162.427 72.454 C 161.307 71.214,160.234 69.711,157.281 65.242 C 156.471 64.015,155.286 62.342,154.648 61.524 C 154.010 60.706,153.121 59.505,152.673 58.854 C 149.425 54.135,147.912 52.061,147.559 51.843 C 147.334 51.704,146.573 50.689,145.869 49.587 C 145.164 48.485,144.379 47.584,144.125 47.584 C 143.871 47.584,143.049 47.077,142.298 46.458 C 139.693 44.311,135.077 43.481,132.714 44.736 M24.721 267.826 C 17.662 269.571,14.093 275.517,15.563 283.086 C 15.997 285.320,21.315 290.484,24.316 291.586 C 25.743 292.110,355.005 292.393,359.665 291.874 C 364.702 291.314,369.948 286.905,370.645 282.645 C 371.425 277.886,370.823 274.530,368.823 272.477 C 368.080 271.715,367.185 270.670,366.833 270.156 C 366.419 269.550,365.307 268.914,363.673 268.347 L 361.152 267.472 193.866 267.419 C 62.149 267.378,26.185 267.464,24.721 267.826 M27.509 324.055 C 24.195 324.641,19.504 326.843,18.833 328.128 C 18.530 328.708,17.764 329.675,17.131 330.276 C 15.356 331.964,14.653 336.611,15.574 340.571 C 15.885 341.911,21.558 348.030,23.541 349.166 C 24.417 349.667,352.396 350.104,359.398 349.613 C 363.257 349.343,364.463 348.601,368.605 343.945 C 371.553 340.632,371.894 332.085,369.158 330.063 C 368.592 329.644,367.770 328.662,367.330 327.880 C 366.602 326.585,366.209 326.348,362.912 325.218 L 359.294 323.978 193.866 323.934 C 102.881 323.911,28.020 323.965,27.509 324.055 " stroke="none" fill="#0e0e0e" fill-rule="evenodd"></path><path id="path1" d="M0.000 185.874 L 0.000 371.747 200.000 371.747 L 400.000 371.747 400.000 185.874 L 400.000 0.000 200.000 0.000 L 0.000 0.000 0.000 185.874 M144.146 43.203 C 147.519 45.437,154.647 53.158,154.647 54.578 C 154.647 54.819,155.196 55.644,155.866 56.412 C 156.537 57.179,157.707 58.727,158.467 59.851 C 161.471 64.297,162.448 65.666,163.528 66.943 C 164.147 67.674,164.816 68.701,165.015 69.225 C 165.215 69.749,165.858 70.740,166.444 71.427 C 167.030 72.114,168.079 73.597,168.775 74.721 C 169.470 75.846,170.439 77.181,170.928 77.687 C 171.416 78.194,172.074 79.114,172.390 79.732 C 172.706 80.350,173.451 81.441,174.046 82.156 C 176.284 84.848,178.830 88.341,179.599 89.777 C 180.037 90.595,180.917 91.872,181.555 92.616 C 182.192 93.359,183.178 94.698,183.745 95.590 C 185.449 98.270,187.255 100.854,188.361 102.194 C 188.935 102.890,189.823 104.165,190.335 105.027 C 191.502 106.997,193.450 109.672,195.273 111.808 C 196.046 112.715,197.090 114.267,197.592 115.258 C 198.094 116.248,198.739 117.193,199.026 117.358 C 199.312 117.523,200.062 118.534,200.690 119.605 C 201.319 120.675,202.508 122.405,203.333 123.448 C 204.158 124.492,204.833 125.497,204.833 125.683 C 204.833 125.868,205.395 126.648,206.083 127.415 C 206.771 128.183,207.625 129.396,207.982 130.112 C 208.804 131.762,211.869 134.944,212.636 134.944 C 213.303 134.944,216.206 132.026,221.141 126.394 C 223.023 124.247,225.267 121.707,226.129 120.749 C 226.990 119.792,228.448 118.059,229.368 116.899 C 230.288 115.740,233.634 111.893,236.803 108.352 C 243.936 100.382,245.438 98.635,245.915 97.754 C 246.122 97.372,246.922 96.425,247.693 95.649 C 250.862 92.459,253.160 89.910,253.160 89.585 C 253.160 89.394,253.666 88.976,254.286 88.656 C 254.905 88.336,255.848 87.585,256.381 86.986 C 259.433 83.561,272.309 83.759,275.898 87.287 C 278.831 90.169,279.216 90.561,280.533 92.003 C 281.277 92.818,282.261 94.073,282.719 94.791 C 283.176 95.509,284.014 96.592,284.581 97.197 C 285.147 97.802,286.170 99.171,286.854 100.240 C 287.537 101.309,288.409 102.403,288.790 102.671 C 289.172 102.940,289.826 103.829,290.244 104.647 C 290.662 105.465,291.522 106.515,292.156 106.981 C 292.790 107.448,293.309 108.057,293.309 108.335 C 293.309 108.614,294.039 109.654,294.931 110.648 C 295.824 111.641,297.071 113.269,297.703 114.265 C 298.334 115.262,299.172 116.302,299.565 116.578 C 299.958 116.853,300.632 117.828,301.063 118.746 C 301.495 119.663,302.184 120.594,302.595 120.814 C 303.007 121.034,303.661 121.836,304.048 122.596 C 304.436 123.356,305.126 124.312,305.582 124.721 C 306.037 125.130,307.040 126.385,307.810 127.509 C 308.581 128.634,309.664 129.972,310.218 130.483 C 310.772 130.994,311.527 131.998,311.896 132.714 C 312.265 133.429,313.018 134.433,313.569 134.944 C 314.120 135.455,314.889 136.495,315.279 137.255 C 315.669 138.015,316.303 138.806,316.690 139.013 C 317.076 139.219,317.839 140.152,318.386 141.085 C 318.933 142.018,320.119 143.614,321.023 144.631 C 321.926 145.648,322.764 146.874,322.885 147.355 C 323.005 147.835,323.592 148.589,324.188 149.030 C 324.785 149.471,325.609 150.491,326.021 151.298 C 326.432 152.104,327.101 152.941,327.507 153.158 C 327.913 153.376,328.506 154.057,328.824 154.673 C 329.143 155.289,330.224 156.699,331.227 157.807 C 332.230 158.914,333.293 160.287,333.590 160.858 C 333.887 161.429,334.586 162.314,335.144 162.825 C 335.701 163.336,336.435 164.363,336.774 165.107 C 337.113 165.850,337.927 166.911,338.583 167.463 C 339.240 168.016,339.777 168.702,339.777 168.988 C 339.777 169.275,340.613 170.432,341.636 171.561 C 342.658 172.690,343.494 173.750,343.494 173.916 C 343.494 174.083,344.414 175.281,345.539 176.580 C 346.664 177.878,347.584 179.177,347.584 179.465 C 347.584 179.753,348.185 180.519,348.920 181.166 C 349.655 181.813,350.576 182.964,350.966 183.724 C 351.356 184.484,351.997 185.277,352.389 185.487 C 352.782 185.698,353.689 186.833,354.404 188.010 C 355.119 189.187,356.152 190.568,356.699 191.079 C 357.246 191.590,358.008 192.621,358.392 193.370 C 358.776 194.120,359.585 195.084,360.188 195.514 C 360.791 195.944,361.476 196.875,361.710 197.584 C 361.944 198.292,362.628 199.223,363.229 199.651 C 363.831 200.080,364.596 200.961,364.930 201.609 C 365.263 202.258,366.242 203.576,367.105 204.539 C 367.968 205.502,368.937 206.843,369.258 207.519 C 369.578 208.194,370.265 209.146,370.783 209.633 C 374.148 212.794,374.105 227.460,370.722 230.120 C 370.188 230.540,369.454 231.373,369.091 231.970 C 368.728 232.567,367.755 233.400,366.929 233.822 C 366.103 234.243,365.428 234.732,365.428 234.909 C 365.428 237.377,353.257 237.285,350.313 234.795 C 349.528 234.131,348.341 233.271,347.677 232.884 C 347.012 232.498,346.468 232.072,346.468 231.937 C 346.468 231.802,345.551 230.664,344.429 229.407 C 343.308 228.150,342.152 226.665,341.860 226.107 C 341.569 225.549,340.798 224.591,340.148 223.978 C 339.497 223.364,338.625 222.201,338.210 221.393 C 337.794 220.584,337.052 219.606,336.561 219.220 C 336.069 218.833,335.339 217.875,334.939 217.090 C 334.538 216.305,333.866 215.421,333.445 215.126 C 333.024 214.832,332.165 213.775,331.536 212.778 C 330.907 211.782,329.758 210.275,328.982 209.429 C 328.207 208.584,327.306 207.376,326.979 206.745 C 326.653 206.114,326.054 205.420,325.648 205.203 C 325.242 204.986,324.550 204.102,324.111 203.240 C 323.672 202.378,323.001 201.453,322.619 201.184 C 322.238 200.916,321.344 199.829,320.633 198.768 C 319.243 196.694,317.179 194.019,315.129 191.636 C 314.426 190.818,313.508 189.480,313.090 188.662 C 312.672 187.844,311.986 186.967,311.567 186.714 C 311.147 186.461,310.526 185.708,310.186 185.041 C 309.846 184.375,308.879 183.061,308.037 182.123 C 305.686 179.504,303.606 176.936,302.342 175.093 C 301.711 174.173,300.758 173.015,300.225 172.519 C 299.692 172.023,299.257 171.401,299.257 171.137 C 299.257 170.873,298.546 169.820,297.677 168.798 C 295.656 166.420,294.061 164.314,292.194 161.559 C 291.375 160.351,290.369 159.127,289.957 158.839 C 289.546 158.551,288.891 157.690,288.501 156.927 C 288.111 156.163,287.152 154.853,286.368 154.017 C 285.585 153.180,284.237 151.599,283.372 150.504 C 278.681 144.563,277.943 143.571,277.321 142.379 C 276.947 141.664,276.297 140.870,275.876 140.616 C 275.455 140.361,274.790 139.525,274.398 138.757 C 274.006 137.989,273.314 137.026,272.861 136.617 C 272.408 136.208,271.472 135.037,270.782 134.015 C 270.091 132.993,268.796 131.328,267.903 130.315 L 266.280 128.474 264.646 128.954 C 263.022 129.431,259.555 132.599,258.047 134.984 C 257.448 135.930,256.717 136.745,253.412 140.149 C 252.518 141.069,251.567 142.240,251.297 142.751 C 251.027 143.262,249.845 144.768,248.671 146.097 C 247.496 147.426,245.014 150.270,243.155 152.416 C 238.523 157.767,236.855 159.643,235.205 161.360 C 233.175 163.473,232.897 165.874,234.474 167.688 C 235.081 168.387,235.772 169.328,236.009 169.778 C 236.246 170.229,237.251 171.657,238.244 172.952 C 239.236 174.248,240.165 175.673,240.307 176.121 C 240.449 176.569,241.131 177.612,241.823 178.440 C 243.358 180.278,243.700 182.002,243.626 187.546 C 243.564 192.269,243.393 192.828,241.079 195.870 C 232.252 207.477,217.961 205.196,209.665 190.857 C 208.431 188.724,205.889 184.930,204.456 183.086 C 203.110 181.352,202.057 179.849,200.026 176.766 C 199.218 175.539,198.170 174.059,197.698 173.477 C 197.226 172.895,196.255 171.527,195.539 170.438 C 193.298 167.025,190.998 163.804,189.856 162.482 C 189.252 161.783,188.569 160.762,188.338 160.214 C 188.107 159.665,187.363 158.565,186.685 157.768 C 185.429 156.293,183.745 153.934,181.805 150.929 C 181.211 150.009,180.203 148.587,179.565 147.770 C 178.187 146.004,176.417 143.401,174.510 140.335 C 173.747 139.108,172.664 137.602,172.105 136.989 C 171.545 136.375,170.818 135.340,170.490 134.688 C 170.161 134.036,169.574 133.279,169.184 133.006 C 168.794 132.733,168.089 131.845,167.617 131.032 C 167.146 130.219,165.958 128.498,164.978 127.208 C 163.999 125.918,163.197 124.716,163.197 124.536 C 163.197 124.356,162.528 123.436,161.710 122.491 C 160.892 121.546,160.223 120.571,160.223 120.324 C 160.223 120.077,159.537 119.045,158.699 118.031 C 157.861 117.017,156.789 115.430,156.318 114.506 C 155.846 113.582,154.942 112.334,154.310 111.733 C 153.677 111.133,153.160 110.418,153.160 110.145 C 153.160 109.872,152.518 108.942,151.733 108.077 C 150.948 107.213,149.610 105.470,148.761 104.205 C 147.911 102.940,147.034 101.792,146.811 101.655 C 146.589 101.518,146.075 100.629,145.670 99.680 C 145.265 98.732,144.517 97.621,144.008 97.212 C 143.499 96.803,142.631 95.694,142.080 94.747 C 140.760 92.480,137.814 88.521,137.428 88.496 C 136.737 88.450,133.751 90.846,133.357 91.763 C 132.959 92.686,129.995 97.001,127.231 100.679 C 126.566 101.564,126.022 102.510,126.022 102.781 C 126.022 103.053,125.447 103.964,124.744 104.806 C 124.041 105.647,122.952 107.233,122.325 108.329 C 121.698 109.425,120.922 110.540,120.601 110.807 C 120.279 111.073,119.589 112.139,119.067 113.174 C 118.545 114.209,117.679 115.585,117.144 116.231 C 116.609 116.877,115.167 119.014,113.941 120.979 C 112.714 122.945,111.344 125.092,110.896 125.752 C 110.449 126.412,109.462 127.955,108.703 129.182 C 107.944 130.409,106.865 131.914,106.305 132.528 C 105.746 133.141,104.995 134.229,104.638 134.944 C 104.280 135.660,103.495 136.831,102.892 137.546 C 101.574 139.111,99.092 142.874,97.650 145.493 C 97.073 146.541,96.222 147.816,95.759 148.327 C 95.296 148.838,94.446 150.093,93.869 151.115 C 93.293 152.138,92.262 153.602,91.578 154.369 C 90.894 155.136,90.335 155.999,90.335 156.286 C 90.335 156.572,89.736 157.524,89.004 158.399 C 88.272 159.275,87.269 160.791,86.774 161.767 C 86.280 162.743,85.395 164.091,84.809 164.763 C 84.223 165.435,83.379 166.704,82.933 167.583 C 82.487 168.462,81.886 169.272,81.597 169.383 C 81.307 169.494,80.408 170.793,79.597 172.270 C 78.787 173.747,77.848 175.184,77.510 175.464 C 77.173 175.744,76.557 176.653,76.140 177.484 C 75.724 178.316,74.992 179.414,74.514 179.926 C 74.036 180.437,73.204 181.686,72.664 182.702 C 72.124 183.718,71.178 185.122,70.563 185.823 C 69.947 186.525,69.148 187.787,68.787 188.629 C 68.427 189.470,67.856 190.388,67.518 190.668 C 67.181 190.948,66.387 192.150,65.752 193.341 C 65.118 194.531,64.057 196.140,63.395 196.916 C 62.733 197.692,61.931 198.829,61.614 199.442 C 61.297 200.056,60.594 200.971,60.053 201.477 C 59.512 201.983,58.769 203.070,58.401 203.893 C 58.034 204.717,57.124 206.115,56.380 207.001 C 55.635 207.886,54.714 209.308,54.333 210.161 C 53.952 211.013,53.275 212.034,52.829 212.430 C 52.383 212.827,51.708 213.851,51.330 214.706 C 50.951 215.562,50.057 216.911,49.342 217.703 C 48.627 218.496,47.668 219.945,47.209 220.923 C 46.751 221.900,46.084 222.856,45.729 223.046 C 45.373 223.237,44.644 224.287,44.109 225.382 C 42.517 228.636,38.284 232.456,35.223 233.401 C 33.856 233.824,32.239 234.427,31.629 234.742 C 29.494 235.847,23.905 234.731,19.992 232.420 C 18.456 231.513,14.275 226.061,13.798 224.344 C 12.711 220.426,13.478 211.334,15.038 209.665 C 15.516 209.154,16.410 207.732,17.026 206.506 C 17.642 205.279,18.655 203.792,19.278 203.201 C 19.900 202.610,20.510 201.671,20.632 201.115 C 20.754 200.559,21.364 199.621,21.987 199.030 C 22.610 198.439,23.680 196.847,24.366 195.493 C 25.052 194.139,25.881 192.928,26.208 192.802 C 26.536 192.677,27.155 191.777,27.584 190.804 C 28.013 189.830,28.905 188.364,29.565 187.546 C 30.226 186.729,31.205 185.187,31.740 184.121 C 32.275 183.055,33.027 182.014,33.412 181.809 C 33.797 181.603,34.380 180.764,34.707 179.944 C 35.035 179.125,35.870 177.824,36.563 177.053 C 37.255 176.281,38.244 174.814,38.759 173.792 C 39.275 172.770,40.069 171.599,40.524 171.190 C 40.979 170.781,41.725 169.610,42.183 168.587 C 42.641 167.565,43.392 166.394,43.853 165.985 C 44.314 165.576,45.156 164.322,45.725 163.197 C 46.294 162.072,47.133 160.818,47.591 160.409 C 48.049 160.000,48.717 158.986,49.075 158.156 C 49.434 157.326,50.261 156.071,50.914 155.368 C 51.567 154.665,52.590 153.134,53.187 151.966 C 53.783 150.798,54.594 149.670,54.987 149.459 C 55.381 149.249,55.903 148.468,56.149 147.724 C 56.394 146.980,57.152 145.755,57.832 145.002 C 58.512 144.250,59.485 142.805,59.993 141.793 C 60.501 140.781,61.355 139.541,61.891 139.038 C 62.426 138.536,63.198 137.367,63.607 136.441 C 64.016 135.516,64.826 134.257,65.407 133.643 C 65.989 133.030,66.902 131.653,67.436 130.583 C 67.970 129.513,68.814 128.372,69.310 128.046 C 69.807 127.721,70.325 126.946,70.461 126.325 C 70.598 125.704,71.273 124.572,71.961 123.810 C 72.650 123.048,73.719 121.403,74.339 120.155 C 74.958 118.907,75.792 117.657,76.191 117.377 C 76.591 117.097,77.249 116.097,77.653 115.155 C 78.056 114.213,78.962 112.802,79.665 112.019 C 80.368 111.236,81.284 109.926,81.701 109.108 C 82.118 108.290,82.969 107.137,83.591 106.546 C 84.213 105.955,84.821 105.024,84.941 104.477 C 85.061 103.930,85.833 102.668,86.656 101.672 C 87.479 100.676,88.401 99.265,88.704 98.536 C 89.007 97.808,89.822 96.626,90.514 95.911 C 91.205 95.195,91.878 94.174,92.009 93.641 C 92.140 93.108,92.921 91.857,93.744 90.861 C 94.567 89.864,95.632 88.277,96.110 87.333 C 96.589 86.390,97.394 85.346,97.900 85.015 C 98.406 84.683,98.932 83.903,99.069 83.281 C 99.205 82.659,100.032 81.273,100.905 80.200 C 101.779 79.128,102.835 77.582,103.252 76.765 C 103.669 75.947,104.384 74.944,104.841 74.535 C 105.299 74.126,105.990 73.056,106.379 72.156 C 106.767 71.256,107.582 69.953,108.190 69.261 C 108.798 68.569,109.695 67.214,110.184 66.250 C 110.672 65.287,111.446 64.164,111.904 63.755 C 112.361 63.346,113.026 62.342,113.380 61.524 C 113.734 60.706,114.656 59.284,115.428 58.364 C 116.199 57.444,117.132 55.991,117.500 55.135 C 117.868 54.280,118.589 53.304,119.103 52.967 C 119.616 52.631,120.230 51.769,120.467 51.053 C 121.287 48.566,126.860 43.185,129.405 42.422 C 132.308 41.552,142.465 42.090,144.146 43.203 M363.611 263.679 C 365.752 264.514,369.937 267.929,371.252 269.916 C 374.646 275.045,373.914 287.667,370.076 290.182 C 369.571 290.513,368.807 291.351,368.379 292.044 C 367.723 293.106,367.178 293.427,364.934 294.075 C 363.467 294.498,361.445 295.210,360.439 295.657 L 358.611 296.468 193.123 296.468 L 27.635 296.468 25.806 295.651 C 24.801 295.201,23.001 294.565,21.807 294.237 C 19.290 293.545,14.952 289.652,13.904 287.146 C 13.253 285.587,12.995 275.830,13.529 272.945 C 14.209 269.270,20.648 263.864,25.279 263.081 C 28.929 262.464,362.002 263.053,363.611 263.679 M363.116 320.704 C 364.602 321.240,368.735 324.299,369.468 325.405 C 369.761 325.847,370.494 326.736,371.098 327.380 C 371.883 328.220,372.349 329.274,372.740 331.098 C 373.852 336.290,373.938 337.292,373.432 339.219 C 373.164 340.242,372.739 342.073,372.489 343.289 C 372.102 345.165,371.743 345.795,370.124 347.447 C 369.074 348.518,367.938 349.724,367.599 350.127 C 367.235 350.561,366.096 351.040,364.811 351.299 C 363.617 351.540,361.552 352.099,360.223 352.541 L 357.807 353.346 193.309 353.346 L 28.810 353.346 26.208 352.533 C 24.777 352.086,22.937 351.616,22.119 351.488 C 19.212 351.033,14.023 346.001,13.625 343.251 C 12.732 337.076,13.132 329.951,14.465 328.306 C 14.902 327.765,15.716 326.712,16.273 325.964 C 16.830 325.217,17.788 324.310,18.401 323.950 C 19.015 323.590,19.935 322.886,20.446 322.385 C 21.708 321.148,22.751 320.787,26.022 320.455 C 30.966 319.954,361.714 320.198,363.116 320.704 " stroke="none" fill="#fbfbfb" fill-rule="evenodd"></path><path id="path2" d="M129.405 42.422 C 126.860 43.185,121.287 48.566,120.467 51.053 C 120.230 51.769,119.616 52.631,119.103 52.967 C 118.589 53.304,117.868 54.280,117.500 55.135 C 117.132 55.991,116.199 57.444,115.428 58.364 C 114.656 59.284,113.734 60.706,113.380 61.524 C 113.026 62.342,112.361 63.346,111.904 63.755 C 111.446 64.164,110.672 65.287,110.184 66.250 C 109.695 67.214,108.798 68.569,108.190 69.261 C 107.582 69.953,106.767 71.256,106.379 72.156 C 105.990 73.056,105.299 74.126,104.841 74.535 C 104.384 74.944,103.669 75.947,103.252 76.765 C 102.835 77.582,101.779 79.128,100.905 80.200 C 100.032 81.273,99.205 82.659,99.069 83.281 C 98.932 83.903,98.406 84.683,97.900 85.015 C 97.394 85.346,96.589 86.390,96.110 87.333 C 95.632 88.277,94.567 89.864,93.744 90.861 C 92.921 91.857,92.140 93.108,92.009 93.641 C 91.878 94.174,91.205 95.195,90.514 95.911 C 89.822 96.626,89.007 97.808,88.704 98.536 C 88.401 99.265,87.479 100.676,86.656 101.672 C 85.833 102.668,85.061 103.930,84.941 104.477 C 84.821 105.024,84.213 105.955,83.591 106.546 C 82.969 107.137,82.118 108.290,81.701 109.108 C 81.284 109.926,80.368 111.236,79.665 112.019 C 78.962 112.802,78.056 114.213,77.653 115.155 C 77.249 116.097,76.591 117.097,76.191 117.377 C 75.792 117.657,74.958 118.907,74.339 120.155 C 73.719 121.403,72.650 123.048,71.961 123.810 C 71.273 124.572,70.598 125.704,70.461 126.325 C 70.325 126.946,69.807 127.721,69.310 128.046 C 68.814 128.372,67.970 129.513,67.436 130.583 C 66.902 131.653,65.989 133.030,65.407 133.643 C 64.826 134.257,64.016 135.516,63.607 136.441 C 63.198 137.367,62.426 138.536,61.891 139.038 C 61.355 139.541,60.501 140.781,59.993 141.793 C 59.485 142.805,58.512 144.250,57.832 145.002 C 57.152 145.755,56.394 146.980,56.149 147.724 C 55.903 148.468,55.381 149.249,54.987 149.459 C 54.594 149.670,53.783 150.798,53.187 151.966 C 52.590 153.134,51.567 154.665,50.914 155.368 C 50.261 156.071,49.434 157.326,49.075 158.156 C 48.717 158.986,48.049 160.000,47.591 160.409 C 47.133 160.818,46.294 162.072,45.725 163.197 C 45.156 164.322,44.314 165.576,43.853 165.985 C 43.392 166.394,42.641 167.565,42.183 168.587 C 41.725 169.610,40.979 170.781,40.524 171.190 C 40.069 171.599,39.275 172.770,38.759 173.792 C 38.244 174.814,37.255 176.281,36.563 177.053 C 35.870 177.824,35.035 179.125,34.707 179.944 C 34.380 180.764,33.797 181.603,33.412 181.809 C 33.027 182.014,32.275 183.055,31.740 184.121 C 31.205 185.187,30.226 186.729,29.565 187.546 C 28.905 188.364,28.013 189.830,27.584 190.804 C 27.155 191.777,26.536 192.677,26.208 192.802 C 25.881 192.928,25.052 194.139,24.366 195.493 C 23.680 196.847,22.610 198.439,21.987 199.030 C 21.364 199.621,20.754 200.559,20.632 201.115 C 20.510 201.671,19.900 202.610,19.278 203.201 C 18.655 203.792,17.642 205.279,17.026 206.506 C 16.410 207.732,15.516 209.154,15.038 209.665 C 13.478 211.334,12.711 220.426,13.798 224.344 C 14.275 226.061,18.456 231.513,19.992 232.420 C 23.905 234.731,29.494 235.847,31.629 234.742 C 32.239 234.427,33.856 233.824,35.223 233.401 C 38.284 232.456,42.517 228.636,44.109 225.382 C 44.644 224.287,45.373 223.237,45.729 223.046 C 46.084 222.856,46.751 221.900,47.209 220.923 C 47.668 219.945,48.627 218.496,49.342 217.703 C 50.057 216.911,50.951 215.562,51.330 214.706 C 51.708 213.851,52.383 212.827,52.829 212.430 C 53.275 212.034,53.952 211.013,54.333 210.161 C 54.714 209.308,55.635 207.886,56.380 207.001 C 57.124 206.115,58.034 204.717,58.401 203.893 C 58.769 203.070,59.512 201.983,60.053 201.477 C 60.594 200.971,61.297 200.056,61.614 199.442 C 61.931 198.829,62.733 197.692,63.395 196.916 C 64.057 196.140,65.118 194.531,65.752 193.341 C 66.387 192.150,67.181 190.948,67.518 190.668 C 67.856 190.388,68.427 189.470,68.787 188.629 C 69.148 187.787,69.947 186.525,70.563 185.823 C 71.178 185.122,72.124 183.718,72.664 182.702 C 73.204 181.686,74.036 180.437,74.514 179.926 C 74.992 179.414,75.724 178.316,76.140 177.484 C 76.557 176.653,77.173 175.744,77.510 175.464 C 77.848 175.184,78.787 173.747,79.597 172.270 C 80.408 170.793,81.307 169.494,81.597 169.383 C 81.886 169.272,82.487 168.462,82.933 167.583 C 83.379 166.704,84.223 165.435,84.809 164.763 C 85.395 164.091,86.280 162.743,86.774 161.767 C 87.269 160.791,88.272 159.275,89.004 158.399 C 89.736 157.524,90.335 156.572,90.335 156.286 C 90.335 155.999,90.894 155.136,91.578 154.369 C 92.262 153.602,93.293 152.138,93.869 151.115 C 94.446 150.093,95.296 148.838,95.759 148.327 C 96.222 147.816,97.073 146.541,97.650 145.493 C 99.092 142.874,101.574 139.111,102.892 137.546 C 103.495 136.831,104.280 135.660,104.638 134.944 C 104.995 134.229,105.746 133.141,106.305 132.528 C 106.865 131.914,107.944 130.409,108.703 129.182 C 109.462 127.955,110.449 126.412,110.896 125.752 C 111.344 125.092,112.714 122.945,113.941 120.979 C 115.167 119.014,116.609 116.877,117.144 116.231 C 117.679 115.585,118.545 114.209,119.067 113.174 C 119.589 112.139,120.279 111.073,120.601 110.807 C 120.922 110.540,121.698 109.425,122.325 108.329 C 122.952 107.233,124.041 105.647,124.744 104.806 C 125.447 103.964,126.022 103.053,126.022 102.781 C 126.022 102.510,126.566 101.564,127.231 100.679 C 129.995 97.001,132.959 92.686,133.357 91.763 C 133.751 90.846,136.737 88.450,137.428 88.496 C 137.814 88.521,140.760 92.480,142.080 94.747 C 142.631 95.694,143.499 96.803,144.008 97.212 C 144.517 97.621,145.265 98.732,145.670 99.680 C 146.075 100.629,146.589 101.518,146.811 101.655 C 147.034 101.792,147.911 102.940,148.761 104.205 C 149.610 105.470,150.948 107.213,151.733 108.077 C 152.518 108.942,153.160 109.872,153.160 110.145 C 153.160 110.418,153.677 111.133,154.310 111.733 C 154.942 112.334,155.846 113.582,156.318 114.506 C 156.789 115.430,157.861 117.017,158.699 118.031 C 159.537 119.045,160.223 120.077,160.223 120.324 C 160.223 120.571,160.892 121.546,161.710 122.491 C 162.528 123.436,163.197 124.356,163.197 124.536 C 163.197 124.716,163.999 125.918,164.978 127.208 C 165.958 128.498,167.146 130.219,167.617 131.032 C 168.089 131.845,168.794 132.733,169.184 133.006 C 169.574 133.279,170.161 134.036,170.490 134.688 C 170.818 135.340,171.545 136.375,172.105 136.989 C 172.664 137.602,173.747 139.108,174.510 140.335 C 176.417 143.401,178.187 146.004,179.565 147.770 C 180.203 148.587,181.211 150.009,181.805 150.929 C 183.745 153.934,185.429 156.293,186.685 157.768 C 187.363 158.565,188.107 159.665,188.338 160.214 C 188.569 160.762,189.252 161.783,189.856 162.482 C 190.998 163.804,193.298 167.025,195.539 170.438 C 196.255 171.527,197.226 172.895,197.698 173.477 C 198.170 174.059,199.218 175.539,200.026 176.766 C 202.057 179.849,203.110 181.352,204.456 183.086 C 205.889 184.930,208.431 188.724,209.665 190.857 C 217.961 205.196,232.252 207.477,241.079 195.870 C 243.393 192.828,243.564 192.269,243.626 187.546 C 243.700 182.002,243.358 180.278,241.823 178.440 C 241.131 177.612,240.449 176.569,240.307 176.121 C 240.165 175.673,239.236 174.248,238.244 172.952 C 237.251 171.657,236.246 170.229,236.009 169.778 C 235.772 169.328,235.081 168.387,234.474 167.688 C 232.897 165.874,233.175 163.473,235.205 161.360 C 236.855 159.643,238.523 157.767,243.155 152.416 C 245.014 150.270,247.496 147.426,248.671 146.097 C 249.845 144.768,251.027 143.262,251.297 142.751 C 251.567 142.240,252.518 141.069,253.412 140.149 C 256.717 136.745,257.448 135.930,258.047 134.984 C 259.555 132.599,263.022 129.431,264.646 128.954 L 266.280 128.474 267.903 130.315 C 268.796 131.328,270.091 132.993,270.782 134.015 C 271.472 135.037,272.408 136.208,272.861 136.617 C 273.314 137.026,274.006 137.989,274.398 138.757 C 274.790 139.525,275.455 140.361,275.876 140.616 C 276.297 140.870,276.947 141.664,277.321 142.379 C 277.943 143.571,278.681 144.563,283.372 150.504 C 284.237 151.599,285.585 153.180,286.368 154.017 C 287.152 154.853,288.111 156.163,288.501 156.927 C 288.891 157.690,289.546 158.551,289.957 158.839 C 290.369 159.127,291.375 160.351,292.194 161.559 C 294.061 164.314,295.656 166.420,297.677 168.798 C 298.546 169.820,299.257 170.873,299.257 171.137 C 299.257 171.401,299.692 172.023,300.225 172.519 C 300.758 173.015,301.711 174.173,302.342 175.093 C 303.606 176.936,305.686 179.504,308.037 182.123 C 308.879 183.061,309.846 184.375,310.186 185.041 C 310.526 185.708,311.147 186.461,311.567 186.714 C 311.986 186.967,312.672 187.844,313.090 188.662 C 313.508 189.480,314.426 190.818,315.129 191.636 C 317.179 194.019,319.243 196.694,320.633 198.768 C 321.344 199.829,322.238 200.916,322.619 201.184 C 323.001 201.453,323.672 202.378,324.111 203.240 C 324.550 204.102,325.242 204.986,325.648 205.203 C 326.054 205.420,326.653 206.114,326.979 206.745 C 327.306 207.376,328.207 208.584,328.982 209.429 C 329.758 210.275,330.907 211.782,331.536 212.778 C 332.165 213.775,333.024 214.832,333.445 215.126 C 333.866 215.421,334.538 216.305,334.939 217.090 C 335.339 217.875,336.069 218.833,336.561 219.220 C 337.052 219.606,337.794 220.584,338.210 221.393 C 338.625 222.201,339.497 223.364,340.148 223.978 C 340.798 224.591,341.569 225.549,341.860 226.107 C 342.152 226.665,343.308 228.150,344.429 229.407 C 345.551 230.664,346.468 231.802,346.468 231.937 C 346.468 232.072,347.012 232.498,347.677 232.884 C 348.341 233.271,349.528 234.131,350.313 234.795 C 353.257 237.285,365.428 237.377,365.428 234.909 C 365.428 234.732,366.103 234.243,366.929 233.822 C 367.755 233.400,368.728 232.567,369.091 231.970 C 369.454 231.373,370.188 230.540,370.722 230.120 C 374.105 227.460,374.148 212.794,370.783 209.633 C 370.265 209.146,369.578 208.194,369.258 207.519 C 368.937 206.843,367.968 205.502,367.105 204.539 C 366.242 203.576,365.263 202.258,364.930 201.609 C 364.596 200.961,363.831 200.080,363.229 199.651 C 362.628 199.223,361.944 198.292,361.710 197.584 C 361.476 196.875,360.791 195.944,360.188 195.514 C 359.585 195.084,358.776 194.120,358.392 193.370 C 358.008 192.621,357.246 191.590,356.699 191.079 C 356.152 190.568,355.119 189.187,354.404 188.010 C 353.689 186.833,352.782 185.698,352.389 185.487 C 351.997 185.277,351.356 184.484,350.966 183.724 C 350.576 182.964,349.655 181.813,348.920 181.166 C 348.185 180.519,347.584 179.753,347.584 179.465 C 347.584 179.177,346.664 177.878,345.539 176.580 C 344.414 175.281,343.494 174.083,343.494 173.916 C 343.494 173.750,342.658 172.690,341.636 171.561 C 340.613 170.432,339.777 169.275,339.777 168.988 C 339.777 168.702,339.240 168.016,338.583 167.463 C 337.927 166.911,337.113 165.850,336.774 165.107 C 336.435 164.363,335.701 163.336,335.144 162.825 C 334.586 162.314,333.887 161.429,333.590 160.858 C 333.293 160.287,332.230 158.914,331.227 157.807 C 330.224 156.699,329.143 155.289,328.824 154.673 C 328.506 154.057,327.913 153.376,327.507 153.158 C 327.101 152.941,326.432 152.104,326.021 151.298 C 325.609 150.491,324.785 149.471,324.188 149.030 C 323.592 148.589,323.005 147.835,322.885 147.355 C 322.764 146.874,321.926 145.648,321.023 144.631 C 320.119 143.614,318.933 142.018,318.386 141.085 C 317.839 140.152,317.076 139.219,316.690 139.013 C 316.303 138.806,315.669 138.015,315.279 137.255 C 314.889 136.495,314.120 135.455,313.569 134.944 C 313.018 134.433,312.265 133.429,311.896 132.714 C 311.527 131.998,310.772 130.994,310.218 130.483 C 309.664 129.972,308.581 128.634,307.810 127.509 C 307.040 126.385,306.037 125.130,305.582 124.721 C 305.126 124.312,304.436 123.356,304.048 122.596 C 303.661 121.836,303.007 121.034,302.595 120.814 C 302.184 120.594,301.495 119.663,301.063 118.746 C 300.632 117.828,299.958 116.853,299.565 116.578 C 299.172 116.302,298.334 115.262,297.703 114.265 C 297.071 113.269,295.824 111.641,294.931 110.648 C 294.039 109.654,293.309 108.614,293.309 108.335 C 293.309 108.057,292.790 107.448,292.156 106.981 C 291.522 106.515,290.662 105.465,290.244 104.647 C 289.826 103.829,289.172 102.940,288.790 102.671 C 288.409 102.403,287.537 101.309,286.854 100.240 C 286.170 99.171,285.147 97.802,284.581 97.197 C 284.014 96.592,283.176 95.509,282.719 94.791 C 281.909 93.521,280.153 91.482,278.238 89.591 C 273.830 85.238,273.940 85.297,269.398 84.788 C 263.785 84.158,258.035 85.129,256.381 86.986 C 255.848 87.585,254.905 88.336,254.286 88.656 C 253.666 88.976,253.160 89.394,253.160 89.585 C 253.160 89.910,250.862 92.459,247.693 95.649 C 246.922 96.425,246.122 97.372,245.915 97.754 C 245.438 98.635,243.936 100.382,236.803 108.352 C 233.634 111.893,230.288 115.740,229.368 116.899 C 228.448 118.059,226.990 119.792,226.129 120.749 C 225.267 121.707,223.023 124.247,221.141 126.394 C 216.206 132.026,213.303 134.944,212.636 134.944 C 211.869 134.944,208.804 131.762,207.982 130.112 C 207.625 129.396,206.771 128.183,206.083 127.415 C 205.395 126.648,204.833 125.868,204.833 125.683 C 204.833 125.497,204.158 124.492,203.333 123.448 C 202.508 122.405,201.319 120.675,200.690 119.605 C 200.062 118.534,199.312 117.523,199.026 117.358 C 198.739 117.193,198.094 116.248,197.592 115.258 C 197.090 114.267,196.046 112.715,195.273 111.808 C 193.450 109.672,191.502 106.997,190.335 105.027 C 189.823 104.165,188.935 102.890,188.361 102.194 C 187.255 100.854,185.449 98.270,183.745 95.590 C 183.178 94.698,182.192 93.359,181.555 92.616 C 180.917 91.872,180.037 90.595,179.599 89.777 C 178.830 88.341,176.284 84.848,174.046 82.156 C 173.451 81.441,172.706 80.350,172.390 79.732 C 172.074 79.114,171.416 78.194,170.928 77.687 C 170.439 77.181,169.470 75.846,168.775 74.721 C 168.079 73.597,167.030 72.114,166.444 71.427 C 165.858 70.740,165.215 69.749,165.015 69.225 C 164.816 68.701,164.147 67.674,163.528 66.943 C 162.448 65.666,161.471 64.297,158.467 59.851 C 157.707 58.727,156.537 57.179,155.866 56.412 C 155.196 55.644,154.647 54.819,154.647 54.578 C 154.647 53.158,147.519 45.437,144.146 43.203 C 142.465 42.090,132.308 41.552,129.405 42.422 M141.301 43.430 C 144.381 44.625,148.361 48.668,153.019 55.333 C 154.630 57.639,156.701 60.584,157.621 61.879 C 158.541 63.174,161.385 67.271,163.941 70.983 C 166.496 74.695,170.218 79.941,172.210 82.640 C 174.203 85.338,176.304 88.216,176.880 89.033 C 177.455 89.851,178.939 91.942,180.176 93.680 C 181.412 95.418,183.500 98.429,184.815 100.372 C 188.083 105.199,189.323 106.947,192.570 111.306 C 194.106 113.368,196.108 116.143,197.019 117.472 C 197.930 118.801,199.475 121.059,200.453 122.491 C 201.431 123.922,202.942 126.104,203.811 127.341 C 204.680 128.577,206.210 130.794,207.212 132.268 C 209.147 135.115,211.854 137.302,212.947 136.902 C 215.243 136.063,220.691 130.309,230.112 118.776 C 232.882 115.384,238.799 108.669,240.465 107.026 C 241.211 106.290,242.825 104.475,244.052 102.992 C 256.704 87.707,258.584 86.191,265.202 85.941 C 272.560 85.663,276.100 88.063,283.198 98.141 C 283.846 99.061,285.128 100.734,286.046 101.859 C 288.476 104.833,291.839 109.159,293.123 110.960 C 293.736 111.820,294.740 113.123,295.353 113.855 C 295.967 114.587,296.970 115.883,297.584 116.734 C 298.849 118.491,300.670 120.900,303.903 125.094 C 305.130 126.685,306.768 128.883,307.543 129.978 C 308.318 131.074,309.106 131.970,309.293 131.970 C 309.481 131.970,310.067 132.709,310.596 133.612 C 311.125 134.514,311.811 135.463,312.120 135.720 C 312.679 136.183,316.902 141.746,318.588 144.238 C 319.072 144.954,319.981 146.156,320.607 146.910 C 321.234 147.664,322.367 149.086,323.124 150.070 C 323.881 151.054,326.228 154.033,328.341 156.691 C 330.453 159.349,332.566 162.151,333.035 162.918 C 333.505 163.685,334.030 164.312,334.201 164.312 C 334.372 164.312,334.890 164.940,335.351 165.706 C 336.121 166.984,336.861 167.977,340.686 172.862 C 341.406 173.783,342.452 175.204,343.010 176.022 C 343.568 176.840,344.616 178.214,345.339 179.076 C 347.471 181.617,348.574 183.016,351.480 186.872 C 352.993 188.878,354.912 191.357,355.745 192.379 C 356.578 193.401,357.717 194.853,358.276 195.605 C 358.836 196.356,360.297 198.261,361.524 199.838 C 362.751 201.414,364.284 203.452,364.932 204.366 C 365.580 205.281,366.521 206.471,367.024 207.011 C 367.527 207.551,368.151 208.411,368.410 208.922 C 368.669 209.433,369.343 210.441,369.908 211.162 C 373.474 215.715,372.960 225.010,368.887 229.651 C 363.254 236.069,356.787 236.921,349.738 232.174 C 348.026 231.021,342.381 224.814,342.380 224.083 C 342.379 223.937,341.668 222.976,340.799 221.948 C 338.292 218.983,337.459 217.915,334.267 213.569 C 331.409 209.677,329.431 207.142,326.952 204.188 C 326.338 203.457,325.335 202.155,324.721 201.294 C 324.108 200.434,322.602 198.444,321.375 196.872 C 319.077 193.928,317.098 191.288,314.523 187.732 C 313.709 186.608,312.030 184.433,310.792 182.900 C 309.555 181.366,308.008 179.398,307.356 178.527 C 306.704 177.656,305.535 176.240,304.758 175.382 C 303.981 174.524,303.346 173.700,303.346 173.550 C 303.346 173.401,302.702 172.536,301.916 171.627 C 301.130 170.719,300.095 169.328,299.618 168.538 C 299.141 167.747,298.237 166.505,297.609 165.778 C 296.982 165.050,295.883 163.649,295.167 162.664 C 292.319 158.742,287.480 152.510,284.757 149.257 C 283.730 148.030,282.349 146.251,281.687 145.304 C 281.025 144.357,278.727 141.297,276.580 138.505 C 274.433 135.713,272.053 132.575,271.291 131.533 C 270.529 130.490,269.077 128.733,268.065 127.628 L 266.225 125.618 264.804 126.226 C 264.022 126.560,263.209 126.906,262.996 126.995 C 262.493 127.206,255.479 135.175,246.840 145.351 C 244.898 147.639,241.798 151.210,239.951 153.287 C 229.964 164.519,229.991 164.402,235.633 172.376 C 241.330 180.428,242.574 183.327,242.271 187.839 C 241.619 197.518,229.997 204.244,221.387 199.924 C 217.330 197.888,215.917 196.318,208.287 185.360 C 207.307 183.954,205.725 181.695,204.772 180.342 C 203.818 178.988,202.340 176.877,201.487 175.651 C 200.634 174.424,199.156 172.312,198.202 170.957 C 197.249 169.603,196.007 167.763,195.443 166.868 C 194.880 165.974,193.709 164.297,192.841 163.142 C 191.974 161.987,189.808 158.976,188.029 156.450 C 186.249 153.925,184.357 151.273,183.823 150.558 C 182.834 149.231,178.689 143.273,176.494 140.021 C 175.826 139.031,173.483 135.769,171.289 132.772 C 165.700 125.139,165.313 124.594,161.767 119.356 C 157.078 112.428,154.734 109.124,149.380 101.897 C 147.988 100.019,144.758 95.397,142.987 92.751 C 140.924 89.667,137.949 86.245,137.331 86.245 C 135.730 86.245,133.940 87.464,132.815 89.320 C 132.167 90.389,130.716 92.519,129.591 94.052 C 128.466 95.586,126.689 98.178,125.642 99.814 C 121.236 106.701,115.227 115.773,113.330 118.401 C 112.740 119.219,111.941 120.479,111.553 121.201 C 110.766 122.668,106.588 128.928,103.746 132.900 C 102.722 134.331,101.432 136.255,100.881 137.175 C 100.330 138.095,99.517 139.266,99.075 139.777 C 98.633 140.288,97.563 141.877,96.697 143.309 C 94.844 146.372,93.530 148.381,85.390 160.595 C 85.050 161.106,83.937 162.695,82.919 164.126 C 81.900 165.558,80.459 167.732,79.717 168.959 C 78.974 170.186,77.875 171.859,77.274 172.677 C 75.907 174.537,73.343 178.414,72.119 180.472 C 71.608 181.331,70.771 182.552,70.260 183.185 C 69.749 183.818,68.327 185.947,67.100 187.917 C 65.874 189.886,64.502 192.030,64.053 192.682 C 63.604 193.333,62.266 195.265,61.079 196.975 C 59.893 198.685,58.384 200.927,57.726 201.957 C 57.068 202.986,56.211 204.180,55.821 204.610 C 55.431 205.039,54.898 205.809,54.638 206.320 C 54.158 207.261,50.763 212.548,48.670 215.613 C 45.372 220.443,44.192 222.243,43.525 223.459 C 36.760 235.803,23.153 236.317,15.498 224.518 C 13.525 221.478,13.899 214.456,16.228 210.796 C 16.950 209.663,18.601 207.063,19.898 205.019 C 21.196 202.974,22.693 200.716,23.225 200.000 C 23.758 199.284,25.267 197.026,26.579 194.981 C 27.891 192.937,29.479 190.511,30.108 189.591 C 30.736 188.671,31.789 187.059,32.447 186.008 C 33.963 183.588,36.419 179.972,37.491 178.581 C 37.945 177.992,39.390 175.836,40.702 173.792 C 42.014 171.747,43.554 169.405,44.125 168.587 C 44.695 167.770,45.647 166.264,46.239 165.242 C 46.832 164.219,47.764 162.797,48.310 162.082 C 48.857 161.366,49.686 160.115,50.154 159.302 C 50.622 158.488,51.414 157.317,51.915 156.699 C 52.416 156.082,53.894 153.903,55.199 151.859 C 56.505 149.814,57.982 147.639,58.481 147.026 C 58.981 146.413,59.922 145.008,60.572 143.906 C 61.222 142.803,62.204 141.314,62.754 140.597 C 63.304 139.880,64.173 138.586,64.684 137.721 C 65.195 136.857,66.080 135.502,66.650 134.710 C 67.718 133.228,72.768 125.667,74.136 123.501 C 77.628 117.973,79.649 114.888,80.400 113.941 C 81.944 111.991,89.713 100.214,92.785 95.167 C 93.346 94.247,94.147 93.111,94.566 92.642 C 94.985 92.173,95.919 90.818,96.642 89.632 C 98.094 87.248,100.303 83.975,103.694 79.182 C 104.923 77.444,106.533 74.978,107.270 73.702 C 108.007 72.426,108.762 71.289,108.946 71.174 C 109.131 71.060,109.957 69.846,110.782 68.476 C 111.607 67.106,112.856 65.149,113.558 64.126 C 115.906 60.706,117.079 58.946,119.505 55.204 C 124.351 47.728,127.788 44.326,131.599 43.231 C 133.478 42.692,139.727 42.820,141.301 43.430 M25.279 263.081 C 20.648 263.864,14.209 269.270,13.529 272.945 C 12.995 275.830,13.253 285.587,13.904 287.146 C 14.952 289.652,19.290 293.545,21.807 294.237 C 23.001 294.565,24.801 295.201,25.806 295.651 L 27.635 296.468 193.123 296.468 L 358.611 296.468 360.439 295.657 C 361.445 295.210,363.467 294.498,364.934 294.075 C 367.178 293.427,367.723 293.106,368.379 292.044 C 368.807 291.351,369.571 290.513,370.076 290.182 C 373.914 287.667,374.646 275.045,371.252 269.916 C 369.937 267.929,365.752 264.514,363.611 263.679 C 362.002 263.053,28.929 262.464,25.279 263.081 M364.434 266.357 C 370.759 269.603,373.317 274.971,372.143 282.537 C 371.072 289.439,366.497 293.170,357.993 294.076 C 351.411 294.777,27.038 294.350,24.481 293.637 C 20.333 292.481,15.633 288.382,14.492 284.926 C 13.888 283.095,14.155 274.147,14.852 272.862 C 16.418 269.975,21.384 266.043,24.670 265.088 C 25.366 264.886,93.514 264.774,193.687 264.810 L 361.537 264.870 364.434 266.357 M26.022 320.455 C 22.751 320.787,21.708 321.148,20.446 322.385 C 19.935 322.886,19.015 323.590,18.401 323.950 C 17.788 324.310,16.830 325.217,16.273 325.964 C 15.716 326.712,14.902 327.765,14.465 328.306 C 13.132 329.951,12.732 337.076,13.625 343.251 C 14.023 346.001,19.212 351.033,22.119 351.488 C 22.937 351.616,24.777 352.086,26.208 352.533 L 28.810 353.346 193.309 353.346 L 357.807 353.346 360.223 352.541 C 361.552 352.099,363.617 351.540,364.811 351.299 C 366.096 351.040,367.235 350.561,367.599 350.127 C 367.938 349.724,369.074 348.518,370.124 347.447 C 371.743 345.795,372.102 345.165,372.489 343.289 C 372.739 342.073,373.164 340.242,373.432 339.219 C 373.938 337.292,373.852 336.290,372.740 331.098 C 372.349 329.274,371.883 328.220,371.098 327.380 C 370.494 326.736,369.761 325.847,369.468 325.405 C 368.735 324.299,364.602 321.240,363.116 320.704 C 361.714 320.198,30.966 319.954,26.022 320.455 M360.037 321.947 C 361.468 322.151,363.063 322.627,363.580 323.006 C 364.098 323.384,365.227 324.054,366.089 324.494 C 366.959 324.937,368.093 325.952,368.636 326.773 C 369.175 327.587,369.747 328.253,369.908 328.253 C 372.254 328.253,373.171 339.576,371.150 343.607 C 370.039 345.823,365.813 349.747,363.768 350.461 C 361.238 351.345,25.982 351.495,23.058 350.614 C 20.842 349.946,15.533 344.839,14.649 342.526 C 13.666 339.952,14.023 331.265,15.170 329.846 C 15.631 329.277,16.539 328.096,17.189 327.222 C 18.214 325.844,19.769 324.703,23.268 322.759 C 23.739 322.497,25.095 322.141,26.282 321.967 C 29.442 321.505,356.797 321.485,360.037 321.947 " stroke="none" fill="#acacac" fill-rule="evenodd"></path><path id="path3" d="M132.279 43.640 C 131.324 43.898,130.153 44.390,129.676 44.735 C 129.200 45.079,128.207 45.764,127.471 46.257 C 125.760 47.401,123.271 50.497,120.276 55.204 C 118.976 57.249,117.388 59.675,116.747 60.595 C 114.056 64.457,112.984 66.083,112.004 67.792 C 111.433 68.786,110.359 70.387,109.616 71.350 C 108.874 72.313,108.001 73.614,107.677 74.241 C 106.909 75.725,103.338 81.057,102.069 82.614 C 101.524 83.282,100.109 85.335,98.925 87.175 C 97.741 89.015,96.328 91.190,95.785 92.007 C 92.158 97.472,89.980 100.789,89.022 102.309 C 87.091 105.373,81.332 113.898,80.411 115.056 C 79.097 116.709,76.362 120.917,75.485 122.637 C 75.062 123.465,74.239 124.691,73.655 125.361 C 73.071 126.032,72.306 127.142,71.954 127.828 C 71.603 128.515,70.618 130.051,69.765 131.243 C 68.913 132.435,67.763 134.131,67.210 135.013 C 64.647 139.100,60.530 145.309,59.492 146.654 C 58.861 147.472,57.374 149.647,56.188 151.487 C 53.334 155.916,52.199 157.615,51.343 158.736 C 50.953 159.247,49.620 161.255,48.382 163.197 C 47.144 165.139,45.623 167.481,45.001 168.401 C 44.380 169.322,42.791 171.747,41.471 173.792 C 40.151 175.836,38.738 177.942,38.331 178.470 C 37.315 179.791,33.955 184.725,32.156 187.539 C 31.338 188.818,30.344 190.347,29.946 190.936 C 27.663 194.320,22.660 201.925,21.439 203.868 C 20.657 205.114,19.713 206.468,19.343 206.877 C 18.972 207.286,18.226 208.457,17.685 209.480 C 17.144 210.502,16.344 211.905,15.907 212.598 C 13.949 215.705,14.534 221.880,17.156 225.777 C 23.982 235.924,35.963 234.261,43.680 222.097 C 44.294 221.130,45.548 219.214,46.468 217.839 C 48.443 214.889,49.659 213.046,53.055 207.859 C 57.224 201.489,58.616 199.416,62.943 193.123 C 63.506 192.305,65.044 189.963,66.361 187.918 C 67.678 185.874,69.272 183.448,69.903 182.528 C 70.533 181.608,71.750 179.796,72.606 178.501 C 75.557 174.040,76.769 172.215,77.736 170.775 C 78.269 169.981,79.160 168.578,79.716 167.658 C 80.271 166.738,81.508 164.877,82.463 163.522 C 83.419 162.168,85.513 159.073,87.116 156.645 C 88.719 154.217,90.338 151.812,90.714 151.301 C 91.089 150.790,92.685 148.364,94.260 145.911 C 95.834 143.457,97.600 140.781,98.182 139.963 C 98.765 139.145,99.668 137.770,100.188 136.907 C 100.708 136.044,102.142 133.953,103.376 132.260 C 105.932 128.751,106.000 128.648,113.203 117.472 C 114.952 114.758,116.306 112.702,118.216 109.860 C 120.157 106.970,122.198 103.864,124.205 100.743 C 125.191 99.210,126.311 97.537,126.694 97.026 C 127.078 96.515,128.858 93.922,130.651 91.264 C 136.043 83.271,137.542 83.454,143.927 92.884 C 144.709 94.038,145.945 95.869,146.676 96.954 C 147.407 98.038,149.290 100.648,150.861 102.753 C 152.432 104.857,154.638 107.881,155.762 109.471 C 156.887 111.061,158.300 113.052,158.904 113.895 C 159.507 114.738,161.412 117.519,163.137 120.074 C 164.862 122.630,166.588 125.139,166.973 125.651 C 168.461 127.626,175.320 137.036,175.915 137.918 C 176.926 139.418,183.551 148.979,187.162 154.149 C 188.995 156.774,191.511 160.260,192.753 161.896 C 193.995 163.532,196.481 167.045,198.278 169.703 C 200.074 172.361,202.326 175.645,203.281 177.002 C 204.237 178.358,206.006 180.867,207.213 182.578 C 208.420 184.288,210.595 187.444,212.046 189.591 C 219.771 201.020,228.234 203.707,236.248 197.276 C 242.866 191.965,243.361 183.711,237.504 176.341 C 236.908 175.590,236.057 174.375,235.613 173.641 C 235.170 172.906,234.410 171.821,233.926 171.230 C 231.214 167.920,230.418 163.745,232.063 161.454 C 233.136 159.960,235.438 157.272,241.447 150.497 C 245.899 145.479,248.522 142.433,255.799 133.829 C 260.792 127.926,262.627 126.159,264.517 125.438 L 266.302 124.756 268.491 127.155 C 269.695 128.474,271.130 130.171,271.679 130.926 C 274.509 134.817,285.188 148.803,286.803 150.734 C 287.825 151.957,289.247 153.739,289.963 154.693 C 290.678 155.648,292.770 158.376,294.610 160.756 C 296.450 163.136,298.479 165.819,299.120 166.719 C 300.721 168.969,305.221 174.849,307.235 177.323 C 310.001 180.723,316.475 189.174,317.561 190.803 C 318.121 191.643,318.975 192.760,319.458 193.284 C 319.941 193.809,320.859 194.991,321.497 195.911 C 322.136 196.831,323.585 198.755,324.719 200.186 C 325.853 201.617,327.476 203.708,328.326 204.833 C 329.176 205.957,330.080 207.004,330.334 207.158 C 330.589 207.313,331.175 208.066,331.637 208.831 C 332.397 210.091,334.410 212.807,339.501 219.442 C 340.474 220.710,341.812 222.488,342.475 223.394 C 351.661 235.946,360.862 237.921,368.635 229.008 C 372.499 224.577,372.963 216.050,369.578 211.676 C 369.117 211.081,368.204 209.803,367.549 208.836 C 366.893 207.869,364.600 204.806,362.454 202.030 C 360.307 199.254,358.088 196.365,357.523 195.610 C 356.958 194.855,356.004 193.652,355.403 192.937 C 354.803 192.221,353.187 190.130,351.813 188.290 C 350.439 186.450,348.800 184.349,348.170 183.622 C 347.541 182.894,346.484 181.556,345.821 180.648 C 345.158 179.739,343.820 177.961,342.847 176.696 C 341.874 175.431,339.794 172.670,338.225 170.562 C 336.656 168.454,334.816 166.081,334.136 165.289 C 333.456 164.498,332.481 163.220,331.970 162.450 C 331.459 161.680,330.112 159.902,328.976 158.499 C 327.182 156.282,324.823 153.278,319.533 146.468 C 318.818 145.548,317.139 143.290,315.802 141.450 C 312.991 137.582,310.776 134.731,308.900 132.567 C 308.173 131.728,307.253 130.604,306.856 130.069 C 305.191 127.829,299.421 120.165,298.539 119.024 C 298.013 118.344,296.914 116.899,296.097 115.813 C 295.279 114.727,293.606 112.542,292.379 110.957 C 291.152 109.373,289.640 107.361,289.019 106.485 C 288.398 105.610,287.550 104.587,287.136 104.212 C 286.721 103.838,285.397 102.193,284.192 100.558 C 275.062 88.153,272.151 85.962,265.295 86.331 C 259.677 86.633,256.616 88.870,248.885 98.324 C 245.581 102.364,239.933 108.745,238.000 110.623 C 237.309 111.293,236.298 112.418,235.751 113.122 C 232.620 117.156,220.514 131.236,216.794 135.170 C 213.372 138.788,210.713 138.350,207.376 133.619 C 202.612 126.865,201.083 124.671,198.251 120.527 C 196.535 118.016,193.806 114.169,192.185 111.977 C 188.564 107.079,187.850 106.075,184.326 100.929 C 179.812 94.336,173.273 85.122,171.400 82.714 C 170.445 81.487,168.237 78.392,166.493 75.836 C 164.748 73.281,162.283 69.712,161.016 67.905 C 159.749 66.099,158.345 64.092,157.897 63.444 C 155.246 59.616,149.028 51.109,147.472 49.182 C 143.333 44.057,137.981 42.105,132.279 43.640 M139.623 44.785 C 140.343 45.086,141.547 45.839,142.298 46.458 C 143.049 47.077,143.871 47.584,144.125 47.584 C 144.379 47.584,145.164 48.485,145.869 49.587 C 146.573 50.689,147.334 51.704,147.559 51.843 C 147.912 52.061,149.425 54.135,152.673 58.854 C 153.121 59.505,154.010 60.706,154.648 61.524 C 155.286 62.342,156.471 64.015,157.281 65.242 C 160.234 69.711,161.307 71.214,162.427 72.454 C 163.055 73.149,163.569 73.918,163.569 74.162 C 163.569 74.678,167.386 80.183,169.206 82.293 C 169.888 83.083,170.697 84.190,171.004 84.752 C 171.310 85.315,172.031 86.341,172.605 87.032 C 173.180 87.724,174.320 89.294,175.140 90.520 C 175.960 91.747,177.374 93.755,178.283 94.981 C 179.191 96.208,180.226 97.687,180.581 98.268 C 182.409 101.258,185.446 105.665,186.875 107.402 C 187.449 108.100,188.284 109.312,188.732 110.095 C 189.179 110.879,190.053 112.148,190.672 112.916 C 192.838 115.600,196.283 120.375,196.283 120.695 C 196.283 120.872,196.910 121.801,197.677 122.760 C 198.443 123.718,199.536 125.221,200.105 126.099 C 201.778 128.682,203.603 131.307,204.833 132.900 C 205.464 133.717,206.532 135.223,207.205 136.245 C 210.088 140.622,213.347 140.834,217.286 136.901 C 218.815 135.374,219.516 134.591,227.206 125.812 C 228.293 124.571,230.102 122.414,231.227 121.017 C 234.145 117.390,237.125 113.884,238.848 112.048 C 239.665 111.177,241.171 109.515,242.193 108.355 C 243.216 107.195,244.585 105.698,245.237 105.028 C 245.889 104.358,246.726 103.312,247.097 102.702 C 247.467 102.093,248.323 101.026,248.998 100.332 C 249.673 99.638,251.901 97.189,253.948 94.890 C 262.914 84.823,271.620 85.022,278.295 95.446 C 278.982 96.520,279.711 97.398,279.913 97.398 C 280.116 97.398,280.605 98.030,280.999 98.803 C 281.393 99.576,283.195 101.978,285.003 104.141 C 288.028 107.761,289.507 109.659,291.726 112.771 C 292.184 113.414,293.068 114.526,293.691 115.242 C 295.368 117.170,297.197 119.588,299.030 122.305 C 299.928 123.634,301.032 125.055,301.484 125.464 C 301.936 125.872,302.563 126.709,302.876 127.323 C 303.492 128.532,305.122 130.538,307.900 133.509 C 308.871 134.547,309.665 135.537,309.665 135.709 C 309.665 135.880,310.472 136.991,311.457 138.178 C 312.443 139.364,313.564 140.836,313.950 141.450 C 314.335 142.063,315.201 143.193,315.875 143.960 C 316.549 144.727,317.100 145.517,317.100 145.714 C 317.100 145.911,317.811 146.908,318.680 147.929 C 320.810 150.432,323.403 153.746,324.535 155.411 C 325.586 156.956,327.326 159.067,329.647 161.612 C 330.516 162.565,331.227 163.478,331.227 163.641 C 331.227 163.805,331.786 164.566,332.470 165.334 C 333.154 166.101,334.326 167.649,335.073 168.773 C 336.614 171.090,338.420 173.489,340.221 175.613 C 340.897 176.409,341.763 177.580,342.146 178.215 C 342.529 178.849,343.449 180.068,344.191 180.923 C 345.794 182.772,348.051 185.683,349.722 188.059 C 350.387 189.004,351.154 189.944,351.427 190.149 C 351.700 190.353,352.368 191.227,352.912 192.091 C 353.456 192.955,354.313 193.932,354.817 194.262 C 355.321 194.592,355.834 195.180,355.957 195.568 C 356.176 196.259,359.708 200.990,362.152 203.865 C 362.829 204.662,363.693 205.824,364.073 206.448 C 364.452 207.071,365.205 208.016,365.745 208.546 C 366.286 209.077,367.193 210.341,367.761 211.354 C 368.328 212.368,369.181 213.728,369.656 214.377 C 371.144 216.410,371.216 223.227,369.772 225.400 C 364.216 233.762,354.865 234.802,348.040 227.817 C 346.076 225.808,343.923 223.153,343.360 222.049 C 343.027 221.397,342.448 220.644,342.073 220.376 C 341.697 220.108,341.079 219.387,340.697 218.773 C 340.316 218.160,339.310 216.822,338.461 215.799 C 337.613 214.777,336.497 213.269,335.982 212.448 C 335.467 211.627,334.759 210.718,334.410 210.428 C 334.061 210.138,333.465 209.293,333.086 208.550 C 332.706 207.807,332.111 206.963,331.762 206.673 C 331.145 206.160,328.383 202.646,325.546 198.764 C 324.774 197.706,323.916 196.670,323.642 196.462 C 323.367 196.254,322.789 195.501,322.357 194.789 C 321.925 194.077,321.056 192.909,320.425 192.193 C 319.795 191.478,318.747 190.110,318.097 189.155 C 316.089 186.205,314.370 183.928,312.968 182.359 C 312.229 181.532,311.342 180.303,310.997 179.628 C 310.652 178.953,310.120 178.304,309.813 178.187 C 309.507 178.069,308.678 177.116,307.971 176.068 C 307.263 175.021,305.679 172.909,304.450 171.375 C 303.220 169.842,301.604 167.667,300.857 166.543 C 300.111 165.418,299.193 164.279,298.818 164.011 C 298.444 163.743,297.868 162.990,297.540 162.338 C 297.211 161.686,296.489 160.651,295.934 160.037 C 295.379 159.424,294.286 158.002,293.504 156.877 C 292.057 154.793,290.947 153.392,288.271 150.270 C 287.443 149.304,286.453 148.011,286.070 147.398 C 285.688 146.784,284.969 145.864,284.474 145.353 C 283.978 144.842,283.045 143.642,282.400 142.687 C 280.463 139.819,278.702 137.481,277.280 135.890 C 276.541 135.063,275.664 133.853,275.331 133.201 C 274.998 132.549,274.417 131.796,274.039 131.528 C 273.661 131.260,272.913 130.342,272.376 129.487 C 270.897 127.135,266.926 123.048,266.118 123.048 C 264.050 123.048,261.145 125.244,257.172 129.811 C 248.200 140.125,246.684 141.906,245.310 143.753 C 244.520 144.815,243.652 145.819,243.382 145.983 C 243.113 146.148,242.610 146.694,242.266 147.198 C 241.922 147.701,240.260 149.609,238.571 151.438 C 227.890 163.008,227.694 163.448,230.725 169.088 C 231.676 170.857,232.818 172.723,233.262 173.234 C 233.707 173.745,234.632 175.084,235.317 176.208 C 236.002 177.333,236.883 178.615,237.275 179.057 C 240.429 182.618,240.424 189.680,237.266 193.843 C 231.468 201.485,220.485 199.858,214.684 190.497 C 214.275 189.837,212.853 187.760,211.524 185.882 C 210.195 184.003,208.522 181.576,207.807 180.488 C 207.091 179.400,206.122 178.034,205.653 177.452 C 204.707 176.277,202.793 173.555,201.119 171.004 C 199.254 168.161,197.841 166.143,194.681 161.807 C 193.006 159.509,191.105 156.832,190.457 155.859 C 189.808 154.886,188.842 153.504,188.310 152.788 C 185.675 149.243,182.891 145.314,182.344 144.367 C 182.007 143.785,180.949 142.202,179.992 140.850 C 179.036 139.497,177.206 136.905,175.926 135.088 C 174.646 133.271,173.057 131.091,172.394 130.244 C 170.207 127.449,168.539 125.102,164.502 119.145 C 162.939 116.838,160.441 113.263,158.008 109.851 C 156.988 108.420,155.392 106.162,154.463 104.833 C 152.529 102.065,151.797 101.067,149.373 97.881 C 148.414 96.622,147.386 95.119,147.087 94.542 C 146.789 93.965,146.176 93.159,145.725 92.751 C 145.274 92.343,144.649 91.507,144.336 90.893 C 140.473 83.314,134.584 81.464,131.801 86.956 C 131.313 87.920,130.658 88.920,130.347 89.178 C 130.035 89.437,129.240 90.514,128.580 91.571 C 127.920 92.629,126.984 93.929,126.500 94.459 C 126.017 94.990,125.168 96.255,124.614 97.270 C 124.059 98.285,123.142 99.775,122.575 100.580 C 119.913 104.359,118.166 107.003,117.431 108.364 C 116.990 109.182,116.191 110.373,115.656 111.010 C 114.713 112.135,113.089 114.598,110.409 118.969 C 108.687 121.777,106.419 125.240,105.544 126.394 C 105.157 126.905,104.389 128.076,103.838 128.996 C 103.287 129.916,102.289 131.289,101.620 132.046 C 100.951 132.804,100.040 134.142,99.594 135.020 C 99.149 135.899,98.289 137.185,97.683 137.880 C 97.077 138.575,96.286 139.832,95.925 140.673 C 95.564 141.515,94.989 142.436,94.647 142.720 C 94.305 143.004,93.429 144.302,92.700 145.605 C 91.971 146.908,90.807 148.655,90.111 149.487 C 89.416 150.319,88.848 151.205,88.848 151.455 C 88.848 151.706,88.290 152.568,87.608 153.372 C 86.926 154.175,85.890 155.669,85.305 156.691 C 84.720 157.714,83.688 159.208,83.013 160.011 C 82.337 160.815,81.784 161.692,81.784 161.962 C 81.784 162.231,81.228 163.079,80.547 163.847 C 79.866 164.614,78.750 166.245,78.066 167.472 C 77.382 168.699,76.365 170.235,75.805 170.886 C 75.245 171.537,74.665 172.457,74.515 172.931 C 74.366 173.404,73.701 174.427,73.038 175.203 C 72.375 175.979,71.314 177.588,70.679 178.778 C 70.045 179.969,69.260 181.163,68.936 181.432 C 68.612 181.700,68.002 182.601,67.581 183.432 C 67.159 184.264,66.335 185.494,65.749 186.166 C 65.162 186.838,64.243 188.260,63.706 189.326 C 63.168 190.392,62.165 191.892,61.476 192.659 C 60.787 193.426,60.223 194.266,60.223 194.525 C 60.223 194.783,59.539 195.823,58.702 196.836 C 57.865 197.848,56.839 199.351,56.422 200.175 C 56.005 200.999,55.100 202.301,54.412 203.068 C 53.723 203.835,53.160 204.695,53.160 204.979 C 53.160 205.263,52.511 206.281,51.717 207.241 C 50.924 208.201,49.850 209.854,49.331 210.914 C 48.812 211.974,48.021 213.172,47.574 213.577 C 47.127 213.981,46.422 214.976,46.009 215.786 C 45.595 216.597,44.628 218.103,43.860 219.132 C 43.091 220.161,42.106 221.715,41.670 222.584 C 41.234 223.453,40.710 224.164,40.505 224.164 C 40.301 224.164,39.593 224.933,38.933 225.874 C 34.395 232.340,22.985 231.836,18.456 224.970 C 15.044 219.796,14.685 217.083,16.971 213.754 C 17.602 212.834,18.491 211.216,18.945 210.157 C 19.399 209.098,20.000 208.144,20.279 208.037 C 20.559 207.929,21.196 207.037,21.694 206.053 C 22.193 205.069,23.370 203.240,24.311 201.988 C 25.252 200.736,26.022 199.526,26.022 199.299 C 26.022 199.073,26.585 198.259,27.273 197.492 C 27.961 196.724,28.819 195.511,29.180 194.796 C 29.542 194.080,30.568 192.516,31.462 191.320 C 32.355 190.124,33.086 188.912,33.086 188.626 C 33.086 188.340,33.631 187.478,34.297 186.711 C 35.722 185.070,38.821 180.606,40.164 178.258 C 40.684 177.350,41.453 176.224,41.874 175.757 C 42.294 175.289,43.166 173.965,43.812 172.813 C 44.458 171.661,45.250 170.500,45.572 170.233 C 45.894 169.966,46.632 168.807,47.212 167.658 C 47.792 166.509,48.530 165.350,48.852 165.083 C 49.174 164.816,49.970 163.655,50.620 162.503 C 51.270 161.351,52.274 159.861,52.850 159.190 C 53.427 158.520,54.253 157.266,54.685 156.402 C 55.118 155.539,55.845 154.414,56.300 153.903 C 56.755 153.392,57.601 152.138,58.179 151.115 C 58.758 150.093,59.872 148.522,60.656 147.624 C 61.440 146.726,62.082 145.785,62.082 145.532 C 62.082 145.279,62.342 144.857,62.660 144.593 C 62.978 144.329,63.931 142.928,64.779 141.480 C 65.626 140.032,66.800 138.283,67.389 137.594 C 67.978 136.904,68.649 135.900,68.880 135.363 C 69.112 134.826,69.768 133.837,70.339 133.165 C 70.910 132.493,71.794 131.119,72.305 130.112 C 72.815 129.104,73.712 127.730,74.297 127.058 C 74.883 126.386,75.659 125.251,76.023 124.535 C 76.387 123.820,77.088 122.750,77.582 122.159 C 78.076 121.567,78.883 120.288,79.376 119.315 C 79.869 118.342,80.947 116.767,81.772 115.814 C 82.597 114.861,83.271 113.930,83.271 113.745 C 83.271 113.560,83.742 112.859,84.317 112.188 C 84.892 111.516,85.837 110.130,86.417 109.108 C 86.997 108.086,88.158 106.308,88.996 105.158 C 89.834 104.008,90.814 102.586,91.173 101.998 C 93.362 98.413,95.491 95.080,96.395 93.825 C 98.259 91.239,99.194 89.821,100.784 87.175 C 101.643 85.743,102.832 83.987,103.424 83.271 C 105.632 80.607,107.071 78.573,108.025 76.766 C 108.565 75.743,109.497 74.238,110.098 73.420 C 111.364 71.696,113.025 69.171,114.870 66.167 C 115.586 65.002,116.718 63.313,117.387 62.415 C 119.535 59.530,121.119 57.115,122.245 55.013 C 122.849 53.885,124.029 52.132,124.868 51.116 C 125.707 50.101,126.394 49.150,126.394 49.003 C 126.394 48.740,130.891 45.704,132.714 44.736 C 133.957 44.076,137.995 44.105,139.623 44.785 M24.721 265.948 C 20.340 267.343,15.554 271.551,14.837 274.640 C 12.654 284.037,17.421 291.853,26.133 293.161 C 30.531 293.822,354.230 293.945,359.468 293.288 C 367.158 292.324,371.343 288.015,371.674 280.723 C 372.003 273.448,370.126 269.928,364.378 267.045 L 361.524 265.613 193.866 265.544 C 58.984 265.489,25.917 265.568,24.721 265.948 M363.673 268.347 C 365.307 268.914,366.419 269.550,366.833 270.156 C 367.185 270.670,368.080 271.715,368.823 272.477 C 374.789 278.600,369.013 290.834,359.665 291.874 C 355.005 292.393,25.743 292.110,24.316 291.586 C 21.315 290.484,15.997 285.320,15.563 283.086 C 14.093 275.517,17.662 269.571,24.721 267.826 C 26.185 267.464,62.149 267.378,193.866 267.419 L 361.152 267.472 363.673 268.347 M25.093 322.825 C 18.051 325.060,14.524 329.815,14.507 337.094 C 14.496 341.847,14.773 342.528,18.214 346.208 C 21.459 349.678,22.026 349.999,25.849 350.542 C 30.668 351.225,360.959 350.901,363.197 350.211 C 364.995 349.657,369.671 345.339,370.765 343.224 C 372.583 339.709,371.847 329.582,369.714 328.763 C 369.435 328.656,368.779 327.922,368.256 327.132 C 367.529 326.033,366.539 325.319,364.043 324.093 L 360.781 322.491 193.680 322.422 C 59.470 322.366,26.287 322.445,25.093 322.825 M362.912 325.218 C 366.209 326.348,366.602 326.585,367.330 327.880 C 367.770 328.662,368.592 329.644,369.158 330.063 C 371.894 332.085,371.553 340.632,368.605 343.945 C 364.463 348.601,363.257 349.343,359.398 349.613 C 352.396 350.104,24.417 349.667,23.541 349.166 C 21.558 348.030,15.885 341.911,15.574 340.571 C 14.653 336.611,15.356 331.964,17.131 330.276 C 17.764 329.675,18.530 328.708,18.833 328.128 C 19.504 326.843,24.195 324.641,27.509 324.055 C 28.020 323.965,102.881 323.911,193.866 323.934 L 359.294 323.978 362.912 325.218 " stroke="none" fill="#747474" fill-rule="evenodd"></path><path id="path4" d="M131.599 43.231 C 127.788 44.326,124.351 47.728,119.505 55.204 C 117.079 58.946,115.906 60.706,113.558 64.126 C 112.856 65.149,111.607 67.106,110.782 68.476 C 109.957 69.846,109.131 71.060,108.946 71.174 C 108.762 71.289,108.007 72.426,107.270 73.702 C 106.533 74.978,104.923 77.444,103.694 79.182 C 100.303 83.975,98.094 87.248,96.642 89.632 C 95.919 90.818,94.985 92.173,94.566 92.642 C 94.147 93.111,93.346 94.247,92.785 95.167 C 89.713 100.214,81.944 111.991,80.400 113.941 C 79.649 114.888,77.628 117.973,74.136 123.501 C 72.768 125.667,67.718 133.228,66.650 134.710 C 66.080 135.502,65.195 136.857,64.684 137.721 C 64.173 138.586,63.304 139.880,62.754 140.597 C 62.204 141.314,61.222 142.803,60.572 143.906 C 59.922 145.008,58.981 146.413,58.481 147.026 C 57.982 147.639,56.505 149.814,55.199 151.859 C 53.894 153.903,52.416 156.082,51.915 156.699 C 51.414 157.317,50.622 158.488,50.154 159.302 C 49.686 160.115,48.857 161.366,48.310 162.082 C 47.764 162.797,46.832 164.219,46.239 165.242 C 45.647 166.264,44.695 167.770,44.125 168.587 C 43.554 169.405,42.014 171.747,40.702 173.792 C 39.390 175.836,37.945 177.992,37.491 178.581 C 36.419 179.972,33.963 183.588,32.447 186.008 C 31.789 187.059,30.736 188.671,30.108 189.591 C 29.479 190.511,27.891 192.937,26.579 194.981 C 25.267 197.026,23.758 199.284,23.225 200.000 C 22.693 200.716,21.196 202.974,19.898 205.019 C 18.601 207.063,16.950 209.663,16.228 210.796 C 13.899 214.456,13.525 221.478,15.498 224.518 C 23.153 236.317,36.760 235.803,43.525 223.459 C 44.192 222.243,45.372 220.443,48.670 215.613 C 50.763 212.548,54.158 207.261,54.638 206.320 C 54.898 205.809,55.431 205.039,55.821 204.610 C 56.211 204.180,57.068 202.986,57.726 201.957 C 58.384 200.927,59.893 198.685,61.079 196.975 C 62.266 195.265,63.604 193.333,64.053 192.682 C 64.502 192.030,65.874 189.886,67.100 187.917 C 68.327 185.947,69.749 183.818,70.260 183.185 C 70.771 182.552,71.608 181.331,72.119 180.472 C 73.343 178.414,75.907 174.537,77.274 172.677 C 77.875 171.859,78.974 170.186,79.717 168.959 C 80.459 167.732,81.900 165.558,82.919 164.126 C 83.937 162.695,85.050 161.106,85.390 160.595 C 93.530 148.381,94.844 146.372,96.697 143.309 C 97.563 141.877,98.633 140.288,99.075 139.777 C 99.517 139.266,100.330 138.095,100.881 137.175 C 101.432 136.255,102.722 134.331,103.746 132.900 C 106.588 128.928,110.766 122.668,111.553 121.201 C 111.941 120.479,112.740 119.219,113.330 118.401 C 115.227 115.773,121.236 106.701,125.642 99.814 C 126.689 98.178,128.466 95.586,129.591 94.052 C 130.716 92.519,132.167 90.389,132.815 89.320 C 133.940 87.464,135.730 86.245,137.331 86.245 C 137.949 86.245,140.924 89.667,142.987 92.751 C 144.758 95.397,147.988 100.019,149.380 101.897 C 154.734 109.124,157.078 112.428,161.767 119.356 C 165.313 124.594,165.700 125.139,171.289 132.772 C 173.483 135.769,175.826 139.031,176.494 140.021 C 178.689 143.273,182.834 149.231,183.823 150.558 C 184.357 151.273,186.249 153.925,188.029 156.450 C 189.808 158.976,191.974 161.987,192.841 163.142 C 193.709 164.297,194.880 165.974,195.443 166.868 C 196.007 167.763,197.249 169.603,198.202 170.957 C 199.156 172.312,200.634 174.424,201.487 175.651 C 202.340 176.877,203.818 178.988,204.772 180.342 C 205.725 181.695,207.307 183.954,208.287 185.360 C 215.917 196.318,217.330 197.888,221.387 199.924 C 229.997 204.244,241.619 197.518,242.271 187.839 C 242.574 183.327,241.330 180.428,235.633 172.376 C 229.991 164.402,229.964 164.519,239.951 153.287 C 241.798 151.210,244.898 147.639,246.840 145.351 C 255.479 135.175,262.493 127.206,262.996 126.995 C 263.209 126.906,264.022 126.560,264.804 126.226 L 266.225 125.618 268.065 127.628 C 269.077 128.733,270.529 130.490,271.291 131.533 C 272.053 132.575,274.433 135.713,276.580 138.505 C 278.727 141.297,281.025 144.357,281.687 145.304 C 282.349 146.251,283.730 148.030,284.757 149.257 C 287.480 152.510,292.319 158.742,295.167 162.664 C 295.883 163.649,296.982 165.050,297.609 165.778 C 298.237 166.505,299.141 167.747,299.618 168.538 C 300.095 169.328,301.130 170.719,301.916 171.627 C 302.702 172.536,303.346 173.401,303.346 173.550 C 303.346 173.700,303.981 174.524,304.758 175.382 C 305.535 176.240,306.704 177.656,307.356 178.527 C 308.008 179.398,309.555 181.366,310.792 182.900 C 312.030 184.433,313.709 186.608,314.523 187.732 C 317.098 191.288,319.077 193.928,321.375 196.872 C 322.602 198.444,324.108 200.434,324.721 201.294 C 325.335 202.155,326.338 203.457,326.952 204.188 C 329.431 207.142,331.409 209.677,334.267 213.569 C 337.459 217.915,338.292 218.983,340.799 221.948 C 341.668 222.976,342.379 223.937,342.380 224.083 C 342.381 224.814,348.026 231.021,349.738 232.174 C 356.787 236.921,363.254 236.069,368.887 229.651 C 372.960 225.010,373.474 215.715,369.908 211.162 C 369.343 210.441,368.669 209.433,368.410 208.922 C 368.151 208.411,367.527 207.551,367.024 207.011 C 366.521 206.471,365.580 205.281,364.932 204.366 C 364.284 203.452,362.751 201.414,361.524 199.838 C 360.297 198.261,358.836 196.356,358.276 195.605 C 357.717 194.853,356.578 193.401,355.745 192.379 C 354.912 191.357,352.993 188.878,351.480 186.872 C 348.574 183.016,347.471 181.617,345.339 179.076 C 344.616 178.214,343.568 176.840,343.010 176.022 C 342.452 175.204,341.406 173.783,340.686 172.862 C 336.861 167.977,336.121 166.984,335.351 165.706 C 334.890 164.940,334.372 164.312,334.201 164.312 C 334.030 164.312,333.505 163.685,333.035 162.918 C 332.566 162.151,330.453 159.349,328.341 156.691 C 326.228 154.033,323.881 151.054,323.124 150.070 C 322.367 149.086,321.234 147.664,320.607 146.910 C 319.981 146.156,319.072 144.954,318.588 144.238 C 316.902 141.746,312.679 136.183,312.120 135.720 C 311.811 135.463,311.125 134.514,310.596 133.612 C 310.067 132.709,309.481 131.970,309.293 131.970 C 309.106 131.970,308.318 131.074,307.543 129.978 C 306.768 128.883,305.130 126.685,303.903 125.094 C 300.670 120.900,298.849 118.491,297.584 116.734 C 296.970 115.883,295.967 114.587,295.353 113.855 C 294.740 113.123,293.736 111.820,293.123 110.960 C 291.839 109.159,288.476 104.833,286.046 101.859 C 285.128 100.734,283.846 99.061,283.198 98.141 C 276.100 88.063,272.560 85.663,265.202 85.941 C 258.584 86.191,256.704 87.707,244.052 102.992 C 242.825 104.475,241.211 106.290,240.465 107.026 C 238.799 108.669,232.882 115.384,230.112 118.776 C 220.691 130.309,215.243 136.063,212.947 136.902 C 211.854 137.302,209.147 135.115,207.212 132.268 C 206.210 130.794,204.680 128.577,203.811 127.341 C 202.942 126.104,201.431 123.922,200.453 122.491 C 199.475 121.059,197.930 118.801,197.019 117.472 C 196.108 116.143,194.106 113.368,192.570 111.306 C 189.323 106.947,188.083 105.199,184.815 100.372 C 183.500 98.429,181.412 95.418,180.176 93.680 C 178.939 91.942,177.455 89.851,176.880 89.033 C 176.304 88.216,174.203 85.338,172.210 82.640 C 170.218 79.941,166.496 74.695,163.941 70.983 C 161.385 67.271,158.541 63.174,157.621 61.879 C 156.701 60.584,154.630 57.639,153.019 55.333 C 145.201 44.148,139.542 40.950,131.599 43.231 M139.480 43.540 C 141.882 44.049,145.243 46.422,147.472 49.182 C 149.028 51.109,155.246 59.616,157.897 63.444 C 158.345 64.092,159.749 66.099,161.016 67.905 C 162.283 69.712,164.748 73.281,166.493 75.836 C 168.237 78.392,170.445 81.487,171.400 82.714 C 173.273 85.122,179.812 94.336,184.326 100.929 C 187.850 106.075,188.564 107.079,192.185 111.977 C 193.806 114.169,196.535 118.016,198.251 120.527 C 201.083 124.671,202.612 126.865,207.376 133.619 C 210.713 138.350,213.372 138.788,216.794 135.170 C 220.514 131.236,232.620 117.156,235.751 113.122 C 236.298 112.418,237.309 111.293,238.000 110.623 C 239.933 108.745,245.581 102.364,248.885 98.324 C 256.616 88.870,259.677 86.633,265.295 86.331 C 272.151 85.962,275.062 88.153,284.192 100.558 C 285.397 102.193,286.721 103.838,287.136 104.212 C 287.550 104.587,288.398 105.610,289.019 106.485 C 289.640 107.361,291.152 109.373,292.379 110.957 C 293.606 112.542,295.279 114.727,296.097 115.813 C 296.914 116.899,298.013 118.344,298.539 119.024 C 299.421 120.165,305.191 127.829,306.856 130.069 C 307.253 130.604,308.173 131.728,308.900 132.567 C 310.776 134.731,312.991 137.582,315.802 141.450 C 317.139 143.290,318.818 145.548,319.533 146.468 C 324.823 153.278,327.182 156.282,328.976 158.499 C 330.112 159.902,331.459 161.680,331.970 162.450 C 332.481 163.220,333.456 164.498,334.136 165.289 C 334.816 166.081,336.656 168.454,338.225 170.562 C 339.794 172.670,341.874 175.431,342.847 176.696 C 343.820 177.961,345.158 179.739,345.821 180.648 C 346.484 181.556,347.541 182.894,348.170 183.622 C 348.800 184.349,350.439 186.450,351.813 188.290 C 353.187 190.130,354.803 192.221,355.403 192.937 C 356.004 193.652,356.958 194.855,357.523 195.610 C 358.088 196.365,360.307 199.254,362.454 202.030 C 364.600 204.806,366.893 207.869,367.549 208.836 C 368.204 209.803,369.117 211.081,369.578 211.676 C 372.963 216.050,372.499 224.577,368.635 229.008 C 360.862 237.921,351.661 235.946,342.475 223.394 C 341.812 222.488,340.474 220.710,339.501 219.442 C 334.410 212.807,332.397 210.091,331.637 208.831 C 331.175 208.066,330.589 207.313,330.334 207.158 C 330.080 207.004,329.176 205.957,328.326 204.833 C 327.476 203.708,325.853 201.617,324.719 200.186 C 323.585 198.755,322.136 196.831,321.497 195.911 C 320.859 194.991,319.941 193.809,319.458 193.284 C 318.975 192.760,318.121 191.643,317.561 190.803 C 316.475 189.174,310.001 180.723,307.235 177.323 C 305.221 174.849,300.721 168.969,299.120 166.719 C 298.479 165.819,296.450 163.136,294.610 160.756 C 292.770 158.376,290.678 155.648,289.963 154.693 C 289.247 153.739,287.825 151.957,286.803 150.734 C 285.188 148.803,274.509 134.817,271.679 130.926 C 271.130 130.171,269.695 128.474,268.491 127.155 L 266.302 124.756 264.517 125.438 C 262.627 126.159,260.792 127.926,255.799 133.829 C 248.522 142.433,245.899 145.479,241.447 150.497 C 235.438 157.272,233.136 159.960,232.063 161.454 C 230.418 163.745,231.214 167.920,233.926 171.230 C 234.410 171.821,235.170 172.906,235.613 173.641 C 236.057 174.375,236.908 175.590,237.504 176.341 C 243.361 183.711,242.866 191.965,236.248 197.276 C 228.234 203.707,219.771 201.020,212.046 189.591 C 210.595 187.444,208.420 184.288,207.213 182.578 C 206.006 180.867,204.237 178.358,203.281 177.002 C 202.326 175.645,200.074 172.361,198.278 169.703 C 196.481 167.045,193.995 163.532,192.753 161.896 C 191.511 160.260,188.995 156.774,187.162 154.149 C 183.551 148.979,176.926 139.418,175.915 137.918 C 175.320 137.036,168.461 127.626,166.973 125.651 C 166.588 125.139,164.862 122.630,163.137 120.074 C 161.412 117.519,159.507 114.738,158.904 113.895 C 158.300 113.052,156.887 111.061,155.762 109.471 C 154.638 107.881,152.432 104.857,150.861 102.753 C 149.290 100.648,147.407 98.038,146.676 96.954 C 145.945 95.869,144.709 94.038,143.927 92.884 C 137.542 83.454,136.043 83.271,130.651 91.264 C 128.858 93.922,127.078 96.515,126.694 97.026 C 126.311 97.537,125.191 99.210,124.205 100.743 C 122.198 103.864,120.157 106.970,118.216 109.860 C 116.306 112.702,114.952 114.758,113.203 117.472 C 106.000 128.648,105.932 128.751,103.376 132.260 C 102.142 133.953,100.708 136.044,100.188 136.907 C 99.668 137.770,98.765 139.145,98.182 139.963 C 97.600 140.781,95.834 143.457,94.260 145.911 C 92.685 148.364,91.089 150.790,90.714 151.301 C 90.338 151.812,88.719 154.217,87.116 156.645 C 85.513 159.073,83.419 162.168,82.463 163.522 C 81.508 164.877,80.271 166.738,79.716 167.658 C 79.160 168.578,78.269 169.981,77.736 170.775 C 76.769 172.215,75.557 174.040,72.606 178.501 C 71.750 179.796,70.533 181.608,69.903 182.528 C 69.272 183.448,67.678 185.874,66.361 187.918 C 65.044 189.963,63.506 192.305,62.943 193.123 C 58.616 199.416,57.224 201.489,53.055 207.859 C 49.659 213.046,48.443 214.889,46.468 217.839 C 45.548 219.214,44.294 221.130,43.680 222.097 C 35.963 234.261,23.982 235.924,17.156 225.777 C 14.534 221.880,13.949 215.705,15.907 212.598 C 16.344 211.905,17.144 210.502,17.685 209.480 C 18.226 208.457,18.972 207.286,19.343 206.877 C 19.713 206.468,20.657 205.114,21.439 203.868 C 22.660 201.925,27.663 194.320,29.946 190.936 C 30.344 190.347,31.338 188.818,32.156 187.539 C 33.955 184.725,37.315 179.791,38.331 178.470 C 38.738 177.942,40.151 175.836,41.471 173.792 C 42.791 171.747,44.380 169.322,45.001 168.401 C 45.623 167.481,47.144 165.139,48.382 163.197 C 49.620 161.255,50.953 159.247,51.343 158.736 C 52.199 157.615,53.334 155.916,56.188 151.487 C 57.374 149.647,58.861 147.472,59.492 146.654 C 60.530 145.309,64.647 139.100,67.210 135.013 C 67.763 134.131,68.913 132.435,69.765 131.243 C 70.618 130.051,71.603 128.515,71.954 127.828 C 72.306 127.142,73.071 126.032,73.655 125.361 C 74.239 124.691,75.062 123.465,75.485 122.637 C 76.362 120.917,79.097 116.709,80.411 115.056 C 81.332 113.898,87.091 105.373,89.022 102.309 C 89.980 100.789,92.158 97.472,95.785 92.007 C 96.328 91.190,97.741 89.015,98.925 87.175 C 100.109 85.335,101.524 83.282,102.069 82.614 C 103.338 81.057,106.909 75.725,107.677 74.241 C 108.001 73.614,108.874 72.313,109.616 71.350 C 110.359 70.387,111.433 68.786,112.004 67.792 C 112.984 66.083,114.056 64.457,116.747 60.595 C 117.388 59.675,118.976 57.249,120.276 55.204 C 123.271 50.497,125.760 47.401,127.471 46.257 C 128.207 45.764,129.200 45.079,129.676 44.735 C 131.668 43.294,135.890 42.779,139.480 43.540 M24.670 265.088 C 21.384 266.043,16.418 269.975,14.852 272.862 C 14.155 274.147,13.888 283.095,14.492 284.926 C 15.633 288.382,20.333 292.481,24.481 293.637 C 27.038 294.350,351.411 294.777,357.993 294.076 C 368.654 292.940,373.499 286.977,372.128 276.677 C 371.634 272.962,371.482 272.621,369.108 269.888 C 367.840 268.429,366.501 267.418,364.434 266.357 L 361.537 264.870 193.687 264.810 C 93.514 264.774,25.366 264.886,24.670 265.088 M364.378 267.045 C 370.126 269.928,372.003 273.448,371.674 280.723 C 371.343 288.015,367.158 292.324,359.468 293.288 C 354.230 293.945,30.531 293.822,26.133 293.161 C 17.421 291.853,12.654 284.037,14.837 274.640 C 15.554 271.551,20.340 267.343,24.721 265.948 C 25.917 265.568,58.984 265.489,193.866 265.544 L 361.524 265.613 364.378 267.045 M26.282 321.967 C 25.095 322.141,23.739 322.497,23.268 322.759 C 19.769 324.703,18.214 325.844,17.189 327.222 C 16.539 328.096,15.631 329.277,15.170 329.846 C 14.023 331.265,13.666 339.952,14.649 342.526 C 15.533 344.839,20.842 349.946,23.058 350.614 C 25.982 351.495,361.238 351.345,363.768 350.461 C 365.813 349.747,370.039 345.823,371.150 343.607 C 373.171 339.576,372.254 328.253,369.908 328.253 C 369.747 328.253,369.175 327.587,368.636 326.773 C 368.093 325.952,366.959 324.937,366.089 324.494 C 365.227 324.054,364.098 323.384,363.580 323.006 C 363.063 322.627,361.468 322.151,360.037 321.947 C 356.797 321.485,29.442 321.505,26.282 321.967 M364.043 324.093 C 366.539 325.319,367.529 326.033,368.256 327.132 C 368.779 327.922,369.435 328.656,369.714 328.763 C 371.847 329.582,372.583 339.709,370.765 343.224 C 369.671 345.339,364.995 349.657,363.197 350.211 C 360.959 350.901,30.668 351.225,25.849 350.542 C 22.026 349.999,21.459 349.678,18.214 346.208 C 14.773 342.528,14.496 341.847,14.507 337.094 C 14.524 329.815,18.051 325.060,25.093 322.825 C 26.287 322.445,59.470 322.366,193.680 322.422 L 360.781 322.491 364.043 324.093 " stroke="none" fill="#848484" fill-rule="evenodd"></path></g></svg>